<svg width="173" height="172" viewBox="0 0 173 172" fill="none" xmlns="http://www.w3.org/2000/svg">
<circle r="85.5" transform="matrix(-1 0 0 1 86.0569 86)" stroke="url(#paint0_linear)"/>
<circle r="70.6154" transform="matrix(-1 0 0 1 86.0569 86)" stroke="url(#paint1_linear)"/>
<circle r="25" transform="matrix(-1 0 0 1 85.5 86.5)" stroke="url(#paint2_linear)"/>
<circle r="54.0769" transform="matrix(-1 0 0 1 86.0569 86)" stroke="url(#paint3_linear)"/>
<circle r="24.8382" transform="matrix(-1 0 0 1 86.0569 86)" stroke="url(#paint4_linear)"/>
<line x1="-3.04739e-05" y1="87.4609" x2="172" y2="87.461" stroke="url(#paint5_linear)"/>
<line x1="86.5" y1="-0.000351637" x2="86.6138" y2="161.889" stroke="url(#paint6_linear)"/>
<g clip-path="url(#clip0)" filter="url(#filter0_d)">
<path d="M85.5 73.1041C77.562 73.1041 71.1042 79.562 71.1042 87.5C71.1042 90.2948 71.9056 92.9055 73.2894 95.1162C73.3315 95.1978 73.3821 95.2761 73.4394 95.351C76.0111 99.2882 80.4565 101.896 85.5 101.896C93.438 101.896 99.8958 95.4378 99.8958 87.5C99.8958 79.5621 93.438 73.1041 85.5 73.1041ZM75.1042 91.7463C74.5667 90.4354 74.2681 89.0023 74.2681 87.5C74.2682 81.3066 79.3067 76.2682 85.5 76.2682C89.2898 76.2682 92.6445 78.1567 94.6796 81.0401L85.9909 89.7287L82.675 86.413C82.057 85.7952 81.0556 85.7953 80.4375 86.413L75.1042 91.7463ZM85.5 98.7318C81.9778 98.7318 78.8305 97.1007 76.7696 94.5557L81.5563 89.7689L84.8723 93.0847C85.4902 93.7025 86.4916 93.7023 87.1097 93.0847L96.1767 84.0178C96.5355 85.1147 96.7319 86.2845 96.7319 87.4998C96.7318 93.6931 91.6932 98.7318 85.5 98.7318Z" fill="#ECBF4C"/>
<path d="M85.5 73.1041C77.562 73.1041 71.1042 79.562 71.1042 87.5C71.1042 90.2948 71.9056 92.9055 73.2894 95.1162C73.3315 95.1978 73.3821 95.2761 73.4394 95.351C76.0111 99.2882 80.4565 101.896 85.5 101.896C93.438 101.896 99.8958 95.4378 99.8958 87.5C99.8958 79.5621 93.438 73.1041 85.5 73.1041ZM75.1042 91.7463C74.5667 90.4354 74.2681 89.0023 74.2681 87.5C74.2682 81.3066 79.3067 76.2682 85.5 76.2682C89.2898 76.2682 92.6445 78.1567 94.6796 81.0401L85.9909 89.7287L82.675 86.413C82.057 85.7952 81.0556 85.7953 80.4375 86.413L75.1042 91.7463ZM85.5 98.7318C81.9778 98.7318 78.8305 97.1007 76.7696 94.5557L81.5563 89.7689L84.8723 93.0847C85.4902 93.7025 86.4916 93.7023 87.1097 93.0847L96.1767 84.0178C96.5355 85.1147 96.7319 86.2845 96.7319 87.4998C96.7318 93.6931 91.6932 98.7318 85.5 98.7318Z" fill="url(#paint7_linear)"/>
<path d="M109.839 86.4085C109.59 78.6775 107.427 71.0957 103.544 64.3919C99.4092 57.2547 93.442 51.3131 86.2869 47.2096C85.7996 46.9301 85.2002 46.9301 84.7129 47.2096C77.558 51.3131 71.5908 57.2547 67.4563 64.3917C63.573 71.0956 61.4096 78.6773 61.1611 86.4084C55.6151 88.7884 51.9609 94.2648 51.9609 100.37V111.547C51.9609 112.421 52.6694 113.129 53.543 113.129H76.7895C77.1304 117.887 79.2138 122.445 82.6245 125.806L84.3896 127.545C84.6974 127.848 85.0986 128 85.5 128C85.9014 128 86.3024 127.848 86.6104 127.545L88.3755 125.806C91.7862 122.445 93.8696 117.888 94.2105 113.129H99.1055V121.294C99.1055 122.168 99.8139 122.876 100.688 122.876C101.561 122.876 102.27 122.168 102.27 121.294V113.129H117.457C118.331 113.129 119.039 112.421 119.039 111.547V100.37C119.039 94.2647 115.385 88.7884 109.839 86.4085ZM85.5 50.4167C90.4742 53.4097 94.7264 57.3259 98.0889 61.8711H72.9111C76.2736 57.3259 80.5258 53.4097 85.5 50.4167ZM55.125 109.965V100.37C55.125 96.0202 57.468 92.0735 61.1367 89.9532V108.383C61.1367 108.937 61.2332 109.47 61.4088 109.965H55.125ZM86.1548 123.552L85.5 124.197L84.8452 123.552C82.0341 120.782 80.2973 117.044 79.9634 113.129H91.0366C90.7025 117.044 88.9658 120.782 86.1548 123.552ZM106.699 108.383C106.699 109.255 105.99 109.965 105.117 109.965H65.8828C65.0105 109.965 64.3008 109.255 64.3008 108.383V87.9094C64.3008 82.1809 65.4322 76.5988 67.5326 71.4424H74.6958C75.5694 71.4424 76.2779 70.7341 76.2779 69.8603C76.2779 68.9866 75.5694 68.2783 74.6958 68.2783H68.9698C69.5259 67.1721 70.1288 66.0902 70.776 65.0351H100.224C104.382 71.8148 106.699 79.712 106.699 87.9094V108.383ZM115.875 109.965H109.591C109.767 109.47 109.863 108.937 109.863 108.383V89.9534C113.532 92.0735 115.875 96.0202 115.875 100.37V109.965Z" fill="#ECBF4C"/>
<path d="M109.839 86.4085C109.59 78.6775 107.427 71.0957 103.544 64.3919C99.4092 57.2547 93.442 51.3131 86.2869 47.2096C85.7996 46.9301 85.2002 46.9301 84.7129 47.2096C77.558 51.3131 71.5908 57.2547 67.4563 64.3917C63.573 71.0956 61.4096 78.6773 61.1611 86.4084C55.6151 88.7884 51.9609 94.2648 51.9609 100.37V111.547C51.9609 112.421 52.6694 113.129 53.543 113.129H76.7895C77.1304 117.887 79.2138 122.445 82.6245 125.806L84.3896 127.545C84.6974 127.848 85.0986 128 85.5 128C85.9014 128 86.3024 127.848 86.6104 127.545L88.3755 125.806C91.7862 122.445 93.8696 117.888 94.2105 113.129H99.1055V121.294C99.1055 122.168 99.8139 122.876 100.688 122.876C101.561 122.876 102.27 122.168 102.27 121.294V113.129H117.457C118.331 113.129 119.039 112.421 119.039 111.547V100.37C119.039 94.2647 115.385 88.7884 109.839 86.4085ZM85.5 50.4167C90.4742 53.4097 94.7264 57.3259 98.0889 61.8711H72.9111C76.2736 57.3259 80.5258 53.4097 85.5 50.4167ZM55.125 109.965V100.37C55.125 96.0202 57.468 92.0735 61.1367 89.9532V108.383C61.1367 108.937 61.2332 109.47 61.4088 109.965H55.125ZM86.1548 123.552L85.5 124.197L84.8452 123.552C82.0341 120.782 80.2973 117.044 79.9634 113.129H91.0366C90.7025 117.044 88.9658 120.782 86.1548 123.552ZM106.699 108.383C106.699 109.255 105.99 109.965 105.117 109.965H65.8828C65.0105 109.965 64.3008 109.255 64.3008 108.383V87.9094C64.3008 82.1809 65.4322 76.5988 67.5326 71.4424H74.6958C75.5694 71.4424 76.2779 70.7341 76.2779 69.8603C76.2779 68.9866 75.5694 68.2783 74.6958 68.2783H68.9698C69.5259 67.1721 70.1288 66.0902 70.776 65.0351H100.224C104.382 71.8148 106.699 79.712 106.699 87.9094V108.383ZM115.875 109.965H109.591C109.767 109.47 109.863 108.937 109.863 108.383V89.9534C113.532 92.0735 115.875 96.0202 115.875 100.37V109.965Z" fill="url(#paint8_linear)"/>
<path d="M81.5558 68.7419C81.2617 68.4476 80.8536 68.2783 80.4375 68.2783C80.0214 68.2783 79.6133 68.4476 79.319 68.7419C79.0247 69.0361 78.8555 69.4443 78.8555 69.8604C78.8555 70.2764 79.0246 70.6846 79.319 70.9788C79.6134 71.2731 80.0214 71.4424 80.4375 71.4424C80.8536 71.4424 81.2617 71.2731 81.5558 70.9788C81.8501 70.6846 82.0195 70.2764 82.0195 69.8604C82.0195 69.4443 81.8503 69.0361 81.5558 68.7419Z" fill="#ECBF4C"/>
<path d="M81.5558 68.7419C81.2617 68.4476 80.8536 68.2783 80.4375 68.2783C80.0214 68.2783 79.6133 68.4476 79.319 68.7419C79.0247 69.0361 78.8555 69.4443 78.8555 69.8604C78.8555 70.2764 79.0246 70.6846 79.319 70.9788C79.6134 71.2731 80.0214 71.4424 80.4375 71.4424C80.8536 71.4424 81.2617 71.2731 81.5558 70.9788C81.8501 70.6846 82.0195 70.2764 82.0195 69.8604C82.0195 69.4443 81.8503 69.0361 81.5558 68.7419Z" fill="url(#paint9_linear)"/>
<path d="M70.3125 117.361C69.4389 117.361 68.7305 118.069 68.7305 118.943V123.817C68.7305 124.69 69.4389 125.399 70.3125 125.399C71.1861 125.399 71.8945 124.69 71.8945 123.817V118.943C71.8945 118.069 71.1861 117.361 70.3125 117.361Z" fill="#ECBF4C"/>
<path d="M70.3125 117.361C69.4389 117.361 68.7305 118.069 68.7305 118.943V123.817C68.7305 124.69 69.4389 125.399 70.3125 125.399C71.1861 125.399 71.8945 124.69 71.8945 123.817V118.943C71.8945 118.069 71.1861 117.361 70.3125 117.361Z" fill="url(#paint10_linear)"/>
<path d="M101.806 125.299C101.512 125.005 101.104 124.836 100.688 124.836C100.271 124.836 99.8633 125.005 99.569 125.299C99.2747 125.594 99.1055 126.002 99.1055 126.418C99.1055 126.834 99.2746 127.242 99.569 127.536C99.8634 127.831 100.271 128 100.688 128C101.104 128 101.512 127.831 101.806 127.536C102.1 127.242 102.27 126.834 102.27 126.418C102.27 126.002 102.1 125.594 101.806 125.299Z" fill="#ECBF4C"/>
<path d="M101.806 125.299C101.512 125.005 101.104 124.836 100.688 124.836C100.271 124.836 99.8633 125.005 99.569 125.299C99.2747 125.594 99.1055 126.002 99.1055 126.418C99.1055 126.834 99.2746 127.242 99.569 127.536C99.8634 127.831 100.271 128 100.688 128C101.104 128 101.512 127.831 101.806 127.536C102.1 127.242 102.27 126.834 102.27 126.418C102.27 126.002 102.1 125.594 101.806 125.299Z" fill="url(#paint11_linear)"/>
</g>
<defs>
<filter id="filter0_d" x="41" y="47" width="89" height="89" filterUnits="userSpaceOnUse" color-interpolation-filters="sRGB">
<feFlood flood-opacity="0" result="BackgroundImageFix"/>
<feColorMatrix in="SourceAlpha" type="matrix" values="0 0 0 0 0 0 0 0 0 0 0 0 0 0 0 0 0 0 127 0"/>
<feOffset dy="4"/>
<feGaussianBlur stdDeviation="2"/>
<feColorMatrix type="matrix" values="0 0 0 0 0 0 0 0 0 0 0 0 0 0 0 0 0 0 0.18 0"/>
<feBlend mode="normal" in2="BackgroundImageFix" result="effect1_dropShadow"/>
<feBlend mode="normal" in="SourceGraphic" in2="effect1_dropShadow" result="shape"/>
</filter>
<linearGradient id="paint0_linear" x1="86" y1="0" x2="86" y2="172" gradientUnits="userSpaceOnUse">
<stop stop-color="#D14F42"/>
<stop offset="1" stop-color="white" stop-opacity="0"/>
</linearGradient>
<linearGradient id="paint1_linear" x1="71.1154" y1="0" x2="71.1154" y2="142.231" gradientUnits="userSpaceOnUse">
<stop stop-color="#D14F42"/>
<stop offset="1" stop-color="white" stop-opacity="0"/>
</linearGradient>
<linearGradient id="paint2_linear" x1="25.5" y1="0" x2="25.5" y2="51" gradientUnits="userSpaceOnUse">
<stop stop-color="#D14F42"/>
<stop offset="1" stop-color="white" stop-opacity="0"/>
</linearGradient>
<linearGradient id="paint3_linear" x1="54.5769" y1="0" x2="54.5769" y2="109.154" gradientUnits="userSpaceOnUse">
<stop stop-color="#D14F42"/>
<stop offset="1" stop-color="white" stop-opacity="0"/>
</linearGradient>
<linearGradient id="paint4_linear" x1="25.3382" y1="0" x2="25.3382" y2="50.6763" gradientUnits="userSpaceOnUse">
<stop stop-color="#D14F42"/>
<stop offset="1" stop-color="white" stop-opacity="0"/>
</linearGradient>
<linearGradient id="paint5_linear" x1="-3.03931e-05" y1="87.9609" x2="173.344" y2="87.961" gradientUnits="userSpaceOnUse">
<stop stop-color="#D14F42"/>
<stop offset="1" stop-color="white" stop-opacity="0"/>
</linearGradient>
<linearGradient id="paint6_linear" x1="86" y1="1.17147e-07" x2="86.1147" y2="163.154" gradientUnits="userSpaceOnUse">
<stop stop-color="#D14F42"/>
<stop offset="1" stop-color="white" stop-opacity="0"/>
</linearGradient>
<linearGradient id="paint7_linear" x1="85.5" y1="73.1041" x2="85.5" y2="101.896" gradientUnits="userSpaceOnUse">
<stop stop-color="#D14F42"/>
<stop offset="1" stop-color="#E58F31"/>
</linearGradient>
<linearGradient id="paint8_linear" x1="85.5" y1="46.9999" x2="85.5" y2="128" gradientUnits="userSpaceOnUse">
<stop stop-color="#D14F42"/>
<stop offset="1" stop-color="#E58F31"/>
</linearGradient>
<linearGradient id="paint9_linear" x1="80.4375" y1="68.2783" x2="80.4375" y2="71.4424" gradientUnits="userSpaceOnUse">
<stop stop-color="#D14F42"/>
<stop offset="1" stop-color="#E58F31"/>
</linearGradient>
<linearGradient id="paint10_linear" x1="70.3125" y1="117.361" x2="70.3125" y2="125.399" gradientUnits="userSpaceOnUse">
<stop stop-color="#D14F42"/>
<stop offset="1" stop-color="#E58F31"/>
</linearGradient>
<linearGradient id="paint11_linear" x1="100.688" y1="124.836" x2="100.688" y2="128" gradientUnits="userSpaceOnUse">
<stop stop-color="#D14F42"/>
<stop offset="1" stop-color="#E58F31"/>
</linearGradient>
<clipPath id="clip0">
<rect width="81" height="81" fill="white" transform="translate(45 47)"/>
</clipPath>
</defs>
</svg>
