<svg width="173" height="172" viewBox="0 0 173 172" fill="none" xmlns="http://www.w3.org/2000/svg">
<circle r="85.5" transform="matrix(-1 0 0 1 86.0569 86)" stroke="url(#paint0_linear)"/>
<circle r="70.6154" transform="matrix(-1 0 0 1 86.0569 86)" stroke="url(#paint1_linear)"/>
<circle r="54.0769" transform="matrix(-1 0 0 1 86.0569 86)" stroke="url(#paint2_linear)"/>
<circle r="24.8382" transform="matrix(-1 0 0 1 86.0569 86)" stroke="url(#paint3_linear)"/>
<line x1="4.37114e-08" y1="87.4609" x2="172" y2="87.461" stroke="url(#paint4_linear)"/>
<line x1="86.5" y1="-0.000351637" x2="86.6139" y2="161.889" stroke="url(#paint5_linear)"/>
<g filter="url(#filter0_d)">
<path d="M117.711 53H54.2891C53.5772 53 53 53.5771 53 54.2891V110.75C53 111.462 53.5772 112.039 54.2891 112.039H81.0371C81.7489 112.039 82.3262 111.462 82.3262 110.75C82.3262 110.038 81.7489 109.461 81.0371 109.461H55.5781V64.8528C55.6207 64.8571 55.6638 64.8594 55.7075 64.8594H116.422V109.461H113.912C113.201 109.461 112.623 110.038 112.623 110.75C112.623 111.462 113.201 112.039 113.912 112.039H117.711C118.423 112.039 119 111.462 119 110.75V54.2891C119 53.5771 118.423 53 117.711 53ZM116.422 62.2812H55.7075C55.6638 62.2812 55.6207 62.2836 55.5781 62.2878V55.5781H116.422V62.2812Z" fill="white"/>
<path d="M117.711 53H54.2891C53.5772 53 53 53.5771 53 54.2891V110.75C53 111.462 53.5772 112.039 54.2891 112.039H81.0371C81.7489 112.039 82.3262 111.462 82.3262 110.75C82.3262 110.038 81.7489 109.461 81.0371 109.461H55.5781V64.8528C55.6207 64.8571 55.6638 64.8594 55.7075 64.8594H116.422V109.461H113.912C113.201 109.461 112.623 110.038 112.623 110.75C112.623 111.462 113.201 112.039 113.912 112.039H117.711C118.423 112.039 119 111.462 119 110.75V54.2891C119 53.5771 118.423 53 117.711 53ZM116.422 62.2812H55.7075C55.6638 62.2812 55.6207 62.2836 55.5781 62.2878V55.5781H116.422V62.2812Z" fill="url(#paint6_linear)"/>
<path d="M87.4269 109.839C87.1872 109.599 86.8546 109.461 86.5156 109.461C86.1766 109.461 85.844 109.599 85.6043 109.839C85.3645 110.079 85.2266 110.411 85.2266 110.75C85.2266 111.089 85.3644 111.422 85.6043 111.661C85.844 111.901 86.1766 112.039 86.5156 112.039C86.8546 112.039 87.1872 111.901 87.4269 111.661C87.6668 111.422 87.8047 111.089 87.8047 110.75C87.8047 110.411 87.6668 110.078 87.4269 109.839Z" fill="white"/>
<path d="M87.4269 109.839C87.1872 109.599 86.8546 109.461 86.5156 109.461C86.1766 109.461 85.844 109.599 85.6043 109.839C85.3645 110.079 85.2266 110.411 85.2266 110.75C85.2266 111.089 85.3644 111.422 85.6043 111.661C85.844 111.901 86.1766 112.039 86.5156 112.039C86.8546 112.039 87.1872 111.901 87.4269 111.661C87.6668 111.422 87.8047 111.089 87.8047 110.75C87.8047 110.411 87.6668 110.078 87.4269 109.839Z" fill="url(#paint7_linear)"/>
<path d="M110.75 57.6406H81.6255C80.9137 57.6406 80.3365 58.2177 80.3365 58.9297C80.3365 59.6416 80.9137 60.2188 81.6255 60.2188H110.75C111.462 60.2188 112.039 59.6416 112.039 58.9297C112.039 58.2177 111.462 57.6406 110.75 57.6406Z" fill="white"/>
<path d="M110.75 57.6406H81.6255C80.9137 57.6406 80.3365 58.2177 80.3365 58.9297C80.3365 59.6416 80.9137 60.2188 81.6255 60.2188H110.75C111.462 60.2188 112.039 59.6416 112.039 58.9297C112.039 58.2177 111.462 57.6406 110.75 57.6406Z" fill="url(#paint8_linear)"/>
<path d="M67.3175 58.0183C67.0779 57.7786 66.7453 57.6406 66.4062 57.6406C66.0672 57.6406 65.7346 57.7786 65.4949 58.0183C65.255 58.2581 65.1172 58.5907 65.1172 58.9297C65.1172 59.2687 65.255 59.6013 65.4949 59.8411C65.7348 60.0808 66.0672 60.2188 66.4062 60.2188C66.7453 60.2188 67.0779 60.0808 67.3175 59.8411C67.5574 59.6013 67.6953 59.2687 67.6953 58.9297C67.6953 58.5907 67.5574 58.2581 67.3175 58.0183Z" fill="white"/>
<path d="M67.3175 58.0183C67.0779 57.7786 66.7453 57.6406 66.4062 57.6406C66.0672 57.6406 65.7346 57.7786 65.4949 58.0183C65.255 58.2581 65.1172 58.5907 65.1172 58.9297C65.1172 59.2687 65.255 59.6013 65.4949 59.8411C65.7348 60.0808 66.0672 60.2188 66.4062 60.2188C66.7453 60.2188 67.0779 60.0808 67.3175 59.8411C67.5574 59.6013 67.6953 59.2687 67.6953 58.9297C67.6953 58.5907 67.5574 58.2581 67.3175 58.0183Z" fill="url(#paint9_linear)"/>
<path d="M62.1612 58.0183C61.9216 57.7786 61.589 57.6406 61.25 57.6406C60.911 57.6406 60.5784 57.7786 60.3386 58.0183C60.0987 58.2581 59.9609 58.5907 59.9609 58.9297C59.9609 59.2687 60.0987 59.6013 60.3386 59.8411C60.5785 60.0808 60.911 60.2188 61.25 60.2188C61.589 60.2188 61.9216 60.0808 62.1612 59.8411C62.4011 59.6013 62.5391 59.2687 62.5391 58.9297C62.5391 58.5907 62.4011 58.2581 62.1612 58.0183Z" fill="white"/>
<path d="M62.1612 58.0183C61.9216 57.7786 61.589 57.6406 61.25 57.6406C60.911 57.6406 60.5784 57.7786 60.3386 58.0183C60.0987 58.2581 59.9609 58.5907 59.9609 58.9297C59.9609 59.2687 60.0987 59.6013 60.3386 59.8411C60.5785 60.0808 60.911 60.2188 61.25 60.2188C61.589 60.2188 61.9216 60.0808 62.1612 59.8411C62.4011 59.6013 62.5391 59.2687 62.5391 58.9297C62.5391 58.5907 62.4011 58.2581 62.1612 58.0183Z" fill="url(#paint10_linear)"/>
<path d="M72.4737 58.0183C72.2341 57.7786 71.9015 57.6406 71.5625 57.6406C71.2235 57.6406 70.8909 57.7786 70.6511 58.0183C70.4114 58.2581 70.2734 58.5907 70.2734 58.9297C70.2734 59.2687 70.4112 59.6013 70.6511 59.8411C70.891 60.0808 71.2235 60.2188 71.5625 60.2188C71.9015 60.2188 72.2341 60.0808 72.4737 59.8411C72.7136 59.6013 72.8516 59.2687 72.8516 58.9297C72.8516 58.5907 72.7136 58.2581 72.4737 58.0183Z" fill="white"/>
<path d="M72.4737 58.0183C72.2341 57.7786 71.9015 57.6406 71.5625 57.6406C71.2235 57.6406 70.8909 57.7786 70.6511 58.0183C70.4114 58.2581 70.2734 58.5907 70.2734 58.9297C70.2734 59.2687 70.4112 59.6013 70.6511 59.8411C70.891 60.0808 71.2235 60.2188 71.5625 60.2188C71.9015 60.2188 72.2341 60.0808 72.4737 59.8411C72.7136 59.6013 72.8516 59.2687 72.8516 58.9297C72.8516 58.5907 72.7136 58.2581 72.4737 58.0183Z" fill="url(#paint11_linear)"/>
<path d="M93.4224 92.7219C93.239 92.1578 92.7605 91.7545 92.1734 91.6693L88.8658 91.1895L87.386 88.1928C87.386 88.1925 87.3858 88.1924 87.3857 88.1923C87.123 87.6609 86.5918 87.3308 85.9989 87.3308C85.9988 87.3308 85.9985 87.3308 85.9983 87.3308C85.4053 87.3311 84.874 87.6615 84.6115 88.1934L83.1332 91.1909L79.8254 91.6724C79.2386 91.758 78.7603 92.1616 78.5773 92.7257C78.3942 93.2898 78.5444 93.8972 78.9692 94.3112L81.3631 96.6434L80.7989 99.9382C80.6991 100.523 80.935 101.102 81.4146 101.45C81.6859 101.647 82.0028 101.747 82.3221 101.747C82.568 101.747 82.8153 101.688 83.044 101.568L86.0018 100.012L88.9606 101.566C89.4855 101.842 90.1096 101.797 90.5894 101.448C91.0692 101.1 91.3048 100.52 91.2046 99.9351L90.6387 96.6411L93.0314 94.3076C93.4559 93.8934 93.6058 93.2859 93.4224 92.7219ZM88.4506 95.174C88.0854 95.53 87.9194 96.0426 88.0061 96.5434L88.31 98.3123L86.72 97.477C86.269 97.2405 85.7311 97.241 85.2813 97.4781L83.6929 98.3136L83.9959 96.5446C84.0818 96.0428 83.9156 95.5312 83.5507 95.1753L82.265 93.9228L84.041 93.6642C84.5453 93.591 84.9807 93.2743 85.2056 92.8177L85.9994 91.2081L86.794 92.8169C87.0194 93.2735 87.4547 93.5899 87.9591 93.6632L89.7353 93.9208L88.4506 95.174Z" fill="white"/>
<path d="M93.4224 92.7219C93.239 92.1578 92.7605 91.7545 92.1734 91.6693L88.8658 91.1895L87.386 88.1928C87.386 88.1925 87.3858 88.1924 87.3857 88.1923C87.123 87.6609 86.5918 87.3308 85.9989 87.3308C85.9988 87.3308 85.9985 87.3308 85.9983 87.3308C85.4053 87.3311 84.874 87.6615 84.6115 88.1934L83.1332 91.1909L79.8254 91.6724C79.2386 91.758 78.7603 92.1616 78.5773 92.7257C78.3942 93.2898 78.5444 93.8972 78.9692 94.3112L81.3631 96.6434L80.7989 99.9382C80.6991 100.523 80.935 101.102 81.4146 101.45C81.6859 101.647 82.0028 101.747 82.3221 101.747C82.568 101.747 82.8153 101.688 83.044 101.568L86.0018 100.012L88.9606 101.566C89.4855 101.842 90.1096 101.797 90.5894 101.448C91.0692 101.1 91.3048 100.52 91.2046 99.9351L90.6387 96.6411L93.0314 94.3076C93.4559 93.8934 93.6058 93.2859 93.4224 92.7219ZM88.4506 95.174C88.0854 95.53 87.9194 96.0426 88.0061 96.5434L88.31 98.3123L86.72 97.477C86.269 97.2405 85.7311 97.241 85.2813 97.4781L83.6929 98.3136L83.9959 96.5446C84.0818 96.0428 83.9156 95.5312 83.5507 95.1753L82.265 93.9228L84.041 93.6642C84.5453 93.591 84.9807 93.2743 85.2056 92.8177L85.9994 91.2081L86.794 92.8169C87.0194 93.2735 87.4547 93.5899 87.9591 93.6632L89.7353 93.9208L88.4506 95.174Z" fill="url(#paint12_linear)"/>
<path d="M75.1778 92.7219C74.9944 92.1578 74.5159 91.7545 73.9288 91.6693L70.6212 91.1895L69.1414 88.1928C69.1414 88.1925 69.1413 88.1924 69.1411 88.1923C68.8784 87.6609 68.3472 87.3308 67.7544 87.3308C67.7542 87.3308 67.754 87.3308 67.7537 87.3308C67.1608 87.3311 66.6294 87.6615 66.3669 88.1934L64.8886 91.1909L61.5808 91.6724C60.994 91.758 60.5158 92.1616 60.3327 92.7257C60.1497 93.2898 60.2998 93.8972 60.7246 94.3112L63.1185 96.6434L62.5543 99.9382C62.4545 100.523 62.6904 101.102 63.1701 101.45C63.4413 101.647 63.7583 101.747 64.0776 101.747C64.3234 101.747 64.5708 101.688 64.7994 101.568L67.7572 100.012L70.716 101.566C71.2409 101.842 71.8651 101.797 72.3448 101.448C72.8246 101.1 73.0603 100.52 72.9599 99.935L72.394 96.6411L74.7867 94.3075C75.2113 93.8934 75.3612 93.2859 75.1778 92.7219ZM70.206 95.174C69.8415 95.5295 69.6752 96.0414 69.7614 96.5434L70.0653 98.3122L68.4755 97.477C68.0243 97.2405 67.4864 97.241 67.0367 97.4781L65.4484 98.3136L65.7513 96.5446C65.8373 96.0428 65.671 95.5312 65.3062 95.1753L64.0205 93.9228L65.7964 93.6642C66.3007 93.591 66.7361 93.2743 66.9611 92.8177L67.7549 91.2081L68.5495 92.8169C68.7748 93.2735 69.2101 93.5899 69.7145 93.6632L71.4907 93.9208L70.206 95.174Z" fill="white"/>
<path d="M75.1778 92.7219C74.9944 92.1578 74.5159 91.7545 73.9288 91.6693L70.6212 91.1895L69.1414 88.1928C69.1414 88.1925 69.1413 88.1924 69.1411 88.1923C68.8784 87.6609 68.3472 87.3308 67.7544 87.3308C67.7542 87.3308 67.754 87.3308 67.7537 87.3308C67.1608 87.3311 66.6294 87.6615 66.3669 88.1934L64.8886 91.1909L61.5808 91.6724C60.994 91.758 60.5158 92.1616 60.3327 92.7257C60.1497 93.2898 60.2998 93.8972 60.7246 94.3112L63.1185 96.6434L62.5543 99.9382C62.4545 100.523 62.6904 101.102 63.1701 101.45C63.4413 101.647 63.7583 101.747 64.0776 101.747C64.3234 101.747 64.5708 101.688 64.7994 101.568L67.7572 100.012L70.716 101.566C71.2409 101.842 71.8651 101.797 72.3448 101.448C72.8246 101.1 73.0603 100.52 72.9599 99.935L72.394 96.6411L74.7867 94.3075C75.2113 93.8934 75.3612 93.2859 75.1778 92.7219ZM70.206 95.174C69.8415 95.5295 69.6752 96.0414 69.7614 96.5434L70.0653 98.3122L68.4755 97.477C68.0243 97.2405 67.4864 97.241 67.0367 97.4781L65.4484 98.3136L65.7513 96.5446C65.8373 96.0428 65.671 95.5312 65.3062 95.1753L64.0205 93.9228L65.7964 93.6642C66.3007 93.591 66.7361 93.2743 66.9611 92.8177L67.7549 91.2081L68.5495 92.8169C68.7748 93.2735 69.2101 93.5899 69.7145 93.6632L71.4907 93.9208L70.206 95.174Z" fill="url(#paint13_linear)"/>
<path d="M111.667 92.7259C111.484 92.1618 111.006 91.7582 110.419 91.6726L107.111 91.1912L105.633 88.1934C105.371 87.6617 104.839 87.3313 104.246 87.3311C104.246 87.3311 104.246 87.3311 104.246 87.3311C103.653 87.3311 103.121 87.6612 102.859 88.1925C102.859 88.1927 102.859 88.1928 102.859 88.1931L101.379 91.1897L98.0709 91.6695C97.484 91.7547 97.0055 92.1581 96.8221 92.7222C96.6387 93.2861 96.7886 93.8937 97.2131 94.3078L99.606 96.6414L99.0398 99.9358C98.9396 100.52 99.1753 101.1 99.6549 101.448C100.135 101.797 100.759 101.842 101.284 101.567L104.243 100.012L107.201 101.568C107.429 101.689 107.676 101.748 107.922 101.748C108.242 101.748 108.559 101.648 108.83 101.451C109.31 101.102 109.545 100.523 109.445 99.9382L108.881 96.6438L111.275 94.3115C111.7 93.8974 111.85 93.29 111.667 92.7259ZM106.694 95.1758C106.329 95.5312 106.163 96.0429 106.249 96.5444L106.552 98.3136L104.964 97.4783C104.739 97.3596 104.491 97.3001 104.243 97.3001C103.996 97.3001 103.749 97.3592 103.524 97.4775L101.935 98.3123L102.239 96.5433C102.325 96.0414 102.159 95.5296 101.794 95.1741L100.509 93.9209L102.286 93.6632C102.79 93.59 103.225 93.2736 103.45 92.8173L104.245 91.208L105.039 92.8172C105.264 93.2743 105.699 93.591 106.204 93.6642L107.98 93.9228L106.694 95.1758Z" fill="white"/>
<path d="M111.667 92.7259C111.484 92.1618 111.006 91.7582 110.419 91.6726L107.111 91.1912L105.633 88.1934C105.371 87.6617 104.839 87.3313 104.246 87.3311C104.246 87.3311 104.246 87.3311 104.246 87.3311C103.653 87.3311 103.121 87.6612 102.859 88.1925C102.859 88.1927 102.859 88.1928 102.859 88.1931L101.379 91.1897L98.0709 91.6695C97.484 91.7547 97.0055 92.1581 96.8221 92.7222C96.6387 93.2861 96.7886 93.8937 97.2131 94.3078L99.606 96.6414L99.0398 99.9358C98.9396 100.52 99.1753 101.1 99.6549 101.448C100.135 101.797 100.759 101.842 101.284 101.567L104.243 100.012L107.201 101.568C107.429 101.689 107.676 101.748 107.922 101.748C108.242 101.748 108.559 101.648 108.83 101.451C109.31 101.102 109.545 100.523 109.445 99.9382L108.881 96.6438L111.275 94.3115C111.7 93.8974 111.85 93.29 111.667 92.7259ZM106.694 95.1758C106.329 95.5312 106.163 96.0429 106.249 96.5444L106.552 98.3136L104.964 97.4783C104.739 97.3596 104.491 97.3001 104.243 97.3001C103.996 97.3001 103.749 97.3592 103.524 97.4775L101.935 98.3123L102.239 96.5433C102.325 96.0414 102.159 95.5296 101.794 95.1741L100.509 93.9209L102.286 93.6632C102.79 93.59 103.225 93.2736 103.45 92.8173L104.245 91.208L105.039 92.8172C105.264 93.2743 105.699 93.591 106.204 93.6642L107.98 93.9228L106.694 95.1758Z" fill="url(#paint14_linear)"/>
<path d="M110.75 68.2109H61.25C60.5382 68.2109 59.9609 68.7881 59.9609 69.5V83.4185C59.9609 84.1305 60.5382 84.7076 61.25 84.7076H110.75C111.462 84.7076 112.039 84.1305 112.039 83.4185V69.5C112.039 68.7881 111.462 68.2109 110.75 68.2109ZM109.461 82.1295H62.5391V76.4609H81.6256C82.3374 76.4609 82.9146 75.8838 82.9146 75.1719C82.9146 74.4599 82.3374 73.8828 81.6256 73.8828H62.5391V70.7891H109.461V82.1295Z" fill="white"/>
<path d="M110.75 68.2109H61.25C60.5382 68.2109 59.9609 68.7881 59.9609 69.5V83.4185C59.9609 84.1305 60.5382 84.7076 61.25 84.7076H110.75C111.462 84.7076 112.039 84.1305 112.039 83.4185V69.5C112.039 68.7881 111.462 68.2109 110.75 68.2109ZM109.461 82.1295H62.5391V76.4609H81.6256C82.3374 76.4609 82.9146 75.8838 82.9146 75.1719C82.9146 74.4599 82.3374 73.8828 81.6256 73.8828H62.5391V70.7891H109.461V82.1295Z" fill="url(#paint15_linear)"/>
<path d="M113.912 113.053C113.152 113.053 112.436 113.248 111.811 113.59C111.179 111.943 109.581 110.769 107.713 110.769C106.504 110.769 105.408 111.261 104.614 112.054C103.819 111.261 102.723 110.769 101.514 110.769C100.869 110.769 100.256 110.911 99.7036 111.162V103.557C99.7036 101.137 97.735 99.1681 95.3149 99.1681C92.8951 99.1681 90.9263 101.137 90.9263 103.557V117.711C90.9263 118.423 91.5035 119 92.2153 119C92.9272 119 93.5044 118.423 93.5044 117.711V103.557C93.5044 102.559 94.3166 101.746 95.3149 101.746C96.3133 101.746 97.1255 102.559 97.1255 103.557V117.711C97.1255 118.423 97.7027 119 98.4146 119C99.1264 119 99.7036 118.423 99.7036 117.711V115.158C99.7036 114.16 100.516 113.348 101.514 113.348C102.512 113.348 103.325 114.16 103.325 115.158V117.711C103.325 118.423 103.902 119 104.614 119C105.325 119 105.903 118.423 105.903 117.711V115.158C105.903 114.16 106.715 113.348 107.713 113.348C108.711 113.348 109.524 114.16 109.524 115.158V117.711C109.524 118.423 110.101 119 110.813 119C111.525 119 112.102 118.423 112.102 117.711V117.442C112.102 116.444 112.914 115.632 113.912 115.632C114.911 115.632 115.723 116.444 115.723 117.442C115.723 118.154 116.3 118.731 117.012 118.731C117.724 118.731 118.301 118.154 118.301 117.442C118.301 115.022 116.332 113.053 113.912 113.053Z" fill="white"/>
<path d="M113.912 113.053C113.152 113.053 112.436 113.248 111.811 113.59C111.179 111.943 109.581 110.769 107.713 110.769C106.504 110.769 105.408 111.261 104.614 112.054C103.819 111.261 102.723 110.769 101.514 110.769C100.869 110.769 100.256 110.911 99.7036 111.162V103.557C99.7036 101.137 97.735 99.1681 95.3149 99.1681C92.8951 99.1681 90.9263 101.137 90.9263 103.557V117.711C90.9263 118.423 91.5035 119 92.2153 119C92.9272 119 93.5044 118.423 93.5044 117.711V103.557C93.5044 102.559 94.3166 101.746 95.3149 101.746C96.3133 101.746 97.1255 102.559 97.1255 103.557V117.711C97.1255 118.423 97.7027 119 98.4146 119C99.1264 119 99.7036 118.423 99.7036 117.711V115.158C99.7036 114.16 100.516 113.348 101.514 113.348C102.512 113.348 103.325 114.16 103.325 115.158V117.711C103.325 118.423 103.902 119 104.614 119C105.325 119 105.903 118.423 105.903 117.711V115.158C105.903 114.16 106.715 113.348 107.713 113.348C108.711 113.348 109.524 114.16 109.524 115.158V117.711C109.524 118.423 110.101 119 110.813 119C111.525 119 112.102 118.423 112.102 117.711V117.442C112.102 116.444 112.914 115.632 113.912 115.632C114.911 115.632 115.723 116.444 115.723 117.442C115.723 118.154 116.3 118.731 117.012 118.731C117.724 118.731 118.301 118.154 118.301 117.442C118.301 115.022 116.332 113.053 113.912 113.053Z" fill="url(#paint16_linear)"/>
<path d="M88.3292 74.2605C88.0896 74.0207 87.757 73.8828 87.418 73.8828C87.0789 73.8828 86.7464 74.0207 86.5066 74.2605C86.2668 74.5003 86.1289 74.8329 86.1289 75.1719C86.1289 75.5109 86.2667 75.8435 86.5066 76.0832C86.7465 76.323 87.0789 76.4609 87.418 76.4609C87.757 76.4609 88.0896 76.323 88.3292 76.0832C88.569 75.8435 88.707 75.5109 88.707 75.1719C88.707 74.8329 88.5691 74.5003 88.3292 74.2605Z" fill="white"/>
<path d="M88.3292 74.2605C88.0896 74.0207 87.757 73.8828 87.418 73.8828C87.0789 73.8828 86.7464 74.0207 86.5066 74.2605C86.2668 74.5003 86.1289 74.8329 86.1289 75.1719C86.1289 75.5109 86.2667 75.8435 86.5066 76.0832C86.7465 76.323 87.0789 76.4609 87.418 76.4609C87.757 76.4609 88.0896 76.323 88.3292 76.0832C88.569 75.8435 88.707 75.5109 88.707 75.1719C88.707 74.8329 88.5691 74.5003 88.3292 74.2605Z" fill="url(#paint17_linear)"/>
</g>
<defs>
<filter id="filter0_d" x="49" y="53" width="74" height="74" filterUnits="userSpaceOnUse" color-interpolation-filters="sRGB">
<feFlood flood-opacity="0" result="BackgroundImageFix"/>
<feColorMatrix in="SourceAlpha" type="matrix" values="0 0 0 0 0 0 0 0 0 0 0 0 0 0 0 0 0 0 127 0"/>
<feOffset dy="4"/>
<feGaussianBlur stdDeviation="2"/>
<feColorMatrix type="matrix" values="0 0 0 0 0 0 0 0 0 0 0 0 0 0 0 0 0 0 0.18 0"/>
<feBlend mode="normal" in2="BackgroundImageFix" result="effect1_dropShadow"/>
<feBlend mode="normal" in="SourceGraphic" in2="effect1_dropShadow" result="shape"/>
</filter>
<linearGradient id="paint0_linear" x1="86" y1="0" x2="86" y2="172" gradientUnits="userSpaceOnUse">
<stop stop-color="#D14F42"/>
<stop offset="1" stop-color="white" stop-opacity="0"/>
</linearGradient>
<linearGradient id="paint1_linear" x1="71.1154" y1="0" x2="71.1154" y2="142.231" gradientUnits="userSpaceOnUse">
<stop stop-color="#D14F42"/>
<stop offset="1" stop-color="white" stop-opacity="0"/>
</linearGradient>
<linearGradient id="paint2_linear" x1="54.5769" y1="0" x2="54.5769" y2="109.154" gradientUnits="userSpaceOnUse">
<stop stop-color="#D14F42"/>
<stop offset="1" stop-color="white" stop-opacity="0"/>
</linearGradient>
<linearGradient id="paint3_linear" x1="25.3382" y1="0" x2="25.3382" y2="50.6763" gradientUnits="userSpaceOnUse">
<stop stop-color="#D14F42"/>
<stop offset="1" stop-color="white" stop-opacity="0"/>
</linearGradient>
<linearGradient id="paint4_linear" x1="1.24463e-07" y1="87.9609" x2="173.344" y2="87.961" gradientUnits="userSpaceOnUse">
<stop stop-color="#D14F42"/>
<stop offset="1" stop-color="white" stop-opacity="0"/>
</linearGradient>
<linearGradient id="paint5_linear" x1="86" y1="1.17147e-07" x2="86.1147" y2="163.154" gradientUnits="userSpaceOnUse">
<stop stop-color="#D14F42"/>
<stop offset="1" stop-color="white" stop-opacity="0"/>
</linearGradient>
<linearGradient id="paint6_linear" x1="86" y1="53" x2="86" y2="112.039" gradientUnits="userSpaceOnUse">
<stop stop-color="#D14F42"/>
<stop offset="1" stop-color="#ECBF4C"/>
</linearGradient>
<linearGradient id="paint7_linear" x1="86.5156" y1="109.461" x2="86.5156" y2="112.039" gradientUnits="userSpaceOnUse">
<stop stop-color="#D14F42"/>
<stop offset="1" stop-color="#ECBF4C"/>
</linearGradient>
<linearGradient id="paint8_linear" x1="96.1878" y1="57.6406" x2="96.1878" y2="60.2188" gradientUnits="userSpaceOnUse">
<stop stop-color="#D14F42"/>
<stop offset="1" stop-color="#ECBF4C"/>
</linearGradient>
<linearGradient id="paint9_linear" x1="66.4062" y1="57.6406" x2="66.4062" y2="60.2188" gradientUnits="userSpaceOnUse">
<stop stop-color="#D14F42"/>
<stop offset="1" stop-color="#ECBF4C"/>
</linearGradient>
<linearGradient id="paint10_linear" x1="61.25" y1="57.6406" x2="61.25" y2="60.2188" gradientUnits="userSpaceOnUse">
<stop stop-color="#D14F42"/>
<stop offset="1" stop-color="#ECBF4C"/>
</linearGradient>
<linearGradient id="paint11_linear" x1="71.5625" y1="57.6406" x2="71.5625" y2="60.2188" gradientUnits="userSpaceOnUse">
<stop stop-color="#D14F42"/>
<stop offset="1" stop-color="#ECBF4C"/>
</linearGradient>
<linearGradient id="paint12_linear" x1="86" y1="87.3308" x2="86" y2="101.747" gradientUnits="userSpaceOnUse">
<stop stop-color="#D14F42"/>
<stop offset="1" stop-color="#ECBF4C"/>
</linearGradient>
<linearGradient id="paint13_linear" x1="67.7554" y1="87.3308" x2="67.7554" y2="101.747" gradientUnits="userSpaceOnUse">
<stop stop-color="#D14F42"/>
<stop offset="1" stop-color="#ECBF4C"/>
</linearGradient>
<linearGradient id="paint14_linear" x1="104.245" y1="87.3311" x2="104.245" y2="101.748" gradientUnits="userSpaceOnUse">
<stop stop-color="#D14F42"/>
<stop offset="1" stop-color="#ECBF4C"/>
</linearGradient>
<linearGradient id="paint15_linear" x1="86" y1="68.2109" x2="86" y2="84.7076" gradientUnits="userSpaceOnUse">
<stop stop-color="#D14F42"/>
<stop offset="1" stop-color="#ECBF4C"/>
</linearGradient>
<linearGradient id="paint16_linear" x1="104.614" y1="99.1681" x2="104.614" y2="119" gradientUnits="userSpaceOnUse">
<stop stop-color="#D14F42"/>
<stop offset="1" stop-color="#ECBF4C"/>
</linearGradient>
<linearGradient id="paint17_linear" x1="87.418" y1="73.8828" x2="87.418" y2="76.4609" gradientUnits="userSpaceOnUse">
<stop stop-color="#D14F42"/>
<stop offset="1" stop-color="#ECBF4C"/>
</linearGradient>
</defs>
</svg>
