<svg width="520" height="145" viewBox="0 0 520 145" fill="none" xmlns="http://www.w3.org/2000/svg">
<path d="M39.1506 92.269C39.7326 89.456 43.3216 87.807 46.5226 87.807C49.5296 87.807 51.8576 89.747 51.8576 92.754C51.8576 96.149 48.7536 100.029 43.8066 100.029H38.7626L35.7556 114.191H40.9936C46.1346 114.191 48.3656 117.295 48.3656 120.593C48.3656 124.861 44.4856 129.614 37.6956 129.614C32.6516 129.614 29.3536 126.219 30.5176 120.884H15.0946C11.7966 136.21 19.6536 144.552 34.5916 144.552C56.7076 144.552 66.2136 132.621 66.2136 118.847C66.2136 113.415 64.0796 108.953 59.3266 106.14C64.8556 102.454 68.4446 96.246 68.4446 90.329C68.4446 81.793 62.4306 73.839 49.5296 73.839C37.5016 73.839 25.6676 79.659 23.5336 92.269H39.1506ZM105.777 95.179C89.9657 94.888 77.1617 102.842 73.2817 118.944C70.4687 132.427 74.5427 143.485 89.0927 143.776C94.6217 143.776 100.733 141.06 104.322 135.919C102.479 145.425 114.992 144.164 121.103 142.903L122.946 133.979C118.775 133.979 118.484 131.845 119.26 128.062L125.371 99.447C119.551 96.828 112.761 95.276 105.777 95.179ZM105.098 119.138C103.546 124.958 100.345 129.226 95.3977 129.226C89.9657 129.323 88.1227 125.54 89.5777 119.332C91.6147 112.348 96.0767 108.565 101.897 108.274C103.74 108.177 105.583 108.468 107.62 108.953L105.098 119.138ZM188.687 74.518L163.176 105.946C159.296 110.893 154.834 117.877 154.834 125.831C154.834 138.247 163.758 144.164 176.562 144.164C194.022 144.164 208.281 134.949 208.281 116.034C208.281 104.879 201.297 98.768 189.269 98.768C188.978 98.768 188.59 98.962 188.299 99.059L207.99 74.518H188.687ZM179.763 129.226C174.816 129.226 172.585 126.898 172.585 122.921C172.585 116.713 176.465 112.348 183.352 112.348C188.008 112.348 190.336 114.482 190.336 118.653C190.336 124.861 186.65 129.226 179.763 129.226ZM276.511 73.839C262.543 73.839 249.157 82.472 246.053 97.216C244.404 104.976 242.561 113.318 241.009 121.078C237.905 135.919 247.508 144.455 261.476 144.455C275.444 144.455 288.733 135.919 291.837 121.078C293.389 113.318 295.232 104.976 296.881 97.216C299.985 82.472 290.479 73.839 276.511 73.839ZM264.774 128.935C259.633 128.935 256.432 126.219 257.596 120.787L262.543 97.604C263.707 92.075 268.072 89.262 273.213 89.262C278.16 89.262 281.458 92.075 280.294 97.604C278.742 104.976 276.996 113.318 275.347 120.787C274.183 126.219 269.721 128.935 264.774 128.935ZM339.504 73.839C325.536 73.839 312.15 82.472 309.046 97.216C307.397 104.976 305.554 113.318 304.002 121.078C300.898 135.919 310.501 144.455 324.469 144.455C338.437 144.455 351.726 135.919 354.83 121.078C356.382 113.318 358.225 104.976 359.874 97.216C362.978 82.472 353.472 73.839 339.504 73.839ZM327.767 128.935C322.626 128.935 319.425 126.219 320.589 120.787L325.536 97.604C326.7 92.075 331.065 89.262 336.206 89.262C341.153 89.262 344.451 92.075 343.287 97.604C341.735 104.976 339.989 113.318 338.34 120.787C337.176 126.219 332.714 128.935 327.767 128.935ZM402.497 73.839C388.529 73.839 375.143 82.472 372.039 97.216C370.39 104.976 368.547 113.318 366.995 121.078C363.891 135.919 373.494 144.455 387.462 144.455C401.43 144.455 414.719 135.919 417.823 121.078C419.375 113.318 421.218 104.976 422.867 97.216C425.971 82.472 416.465 73.839 402.497 73.839ZM390.76 128.935C385.619 128.935 382.418 126.219 383.582 120.787L388.529 97.604C389.693 92.075 394.058 89.262 399.199 89.262C404.146 89.262 407.444 92.075 406.28 97.604C404.728 104.976 402.982 113.318 401.333 120.787C400.169 126.219 395.707 128.935 390.76 128.935ZM452.028 143L453.968 133.882H447.372L449.312 124.667H455.908L457.46 117.489H450.767L453.386 105.364H460.079L466.772 73.742H487.045C491.442 73.742 495.064 74.5503 497.909 76.167C500.754 77.7837 502.856 79.9177 504.214 82.569C505.572 85.1557 506.251 88.001 506.251 91.105C506.251 94.015 505.798 97.022 504.893 100.126C503.988 103.165 502.436 106.011 500.237 108.662C498.103 111.249 495.128 113.383 491.313 115.064C487.562 116.681 482.809 117.489 477.054 117.489H471.525L469.973 124.667H483.068L481.128 133.882H468.033L466.093 143H452.028ZM474.144 105.364H478.024C481.839 105.364 485.073 104.362 487.724 102.357C490.375 100.352 491.701 97.216 491.701 92.948C491.701 88.292 489.05 85.964 483.747 85.964H478.218L474.144 105.364Z" fill="white"/>
<path d="M29.4346 9.6C33.3226 9.744 31.6906 13.728 28.6186 17.184L13.3546 34.128L12.9706 36H36.2026L37.8346 28.224H27.7066C36.0586 19.344 35.5786 19.104 35.6746 19.008C42.8746 10.896 40.4266 1.872 31.3546 1.872C24.6826 1.872 19.5466 5.952 18.2986 12.816H25.5466C25.9786 10.56 27.8506 9.552 29.4346 9.6ZM61.2267 1.776C54.3147 1.776 47.6907 6.048 46.1547 13.344C45.3387 17.184 44.4267 21.312 43.6587 25.152C42.1227 32.496 46.8747 36.72 53.7867 36.72C60.6987 36.72 67.2747 32.496 68.8107 25.152C69.5787 21.312 70.4907 17.184 71.3067 13.344C72.8427 6.048 68.1387 1.776 61.2267 1.776ZM55.4187 29.04C52.8747 29.04 51.2907 27.696 51.8667 25.008L54.3147 13.536C54.8907 10.8 57.0507 9.408 59.5947 9.408C62.0427 9.408 63.6747 10.8 63.0987 13.536C62.3307 17.184 61.4667 21.312 60.6507 25.008C60.0747 27.696 57.8667 29.04 55.4187 29.04ZM103.977 1.776C97.0647 1.776 90.4407 6.048 88.9047 13.344C88.0887 17.184 87.1767 21.312 86.4087 25.152C84.8727 32.496 89.6247 36.72 96.5367 36.72C103.449 36.72 110.025 32.496 111.561 25.152C112.329 21.312 113.241 17.184 114.057 13.344C115.593 6.048 110.889 1.776 103.977 1.776ZM98.1687 29.04C95.6247 29.04 94.0407 27.696 94.6167 25.008L97.0647 13.536C97.6407 10.8 99.8007 9.408 102.345 9.408C104.793 9.408 106.425 10.8 105.849 13.536C105.081 17.184 104.217 21.312 103.401 25.008C102.825 27.696 100.617 29.04 98.1687 29.04ZM135.149 1.776C128.237 1.776 121.613 6.048 120.077 13.344C119.261 17.184 118.349 21.312 117.581 25.152C116.045 32.496 120.797 36.72 127.709 36.72C134.621 36.72 141.197 32.496 142.733 25.152C143.501 21.312 144.413 17.184 145.229 13.344C146.765 6.048 142.061 1.776 135.149 1.776ZM129.341 29.04C126.797 29.04 125.213 27.696 125.789 25.008L128.237 13.536C128.813 10.8 130.973 9.408 133.517 9.408C135.965 9.408 137.597 10.8 137.021 13.536C136.253 17.184 135.389 21.312 134.573 25.008C133.997 27.696 131.789 29.04 129.341 29.04ZM166.32 1.776C159.408 1.776 152.784 6.048 151.248 13.344C150.432 17.184 149.52 21.312 148.752 25.152C147.216 32.496 151.968 36.72 158.88 36.72C165.792 36.72 172.368 32.496 173.904 25.152C174.672 21.312 175.584 17.184 176.4 13.344C177.936 6.048 173.232 1.776 166.32 1.776ZM160.512 29.04C157.968 29.04 156.384 27.696 156.96 25.008L159.408 13.536C159.984 10.8 162.144 9.408 164.688 9.408C167.136 9.408 168.768 10.8 168.192 13.536C167.424 17.184 166.56 21.312 165.744 25.008C165.168 27.696 162.96 29.04 160.512 29.04ZM190.83 36L191.79 31.488H188.526L189.486 26.928H192.75L193.518 23.376H190.206L191.502 17.376H194.814L198.126 1.728H208.158C210.334 1.728 212.126 2.128 213.534 2.928C214.942 3.728 215.982 4.784 216.654 6.096C217.326 7.376 217.662 8.784 217.662 10.32C217.662 11.76 217.438 13.248 216.99 14.784C216.542 16.288 215.774 17.696 214.686 19.008C213.63 20.288 212.158 21.344 210.27 22.176C208.414 22.976 206.062 23.376 203.214 23.376H200.478L199.71 26.928H206.19L205.23 31.488H198.75L197.79 36H190.83ZM201.774 17.376H203.694C205.582 17.376 207.182 16.88 208.494 15.888C209.806 14.896 210.462 13.344 210.462 11.232C210.462 8.928 209.15 7.776 206.526 7.776H203.79L201.774 17.376Z" fill="white"/>
<line y1="19.5" x2="226.861" y2="19.5" stroke="#D14F42" stroke-width="2"/>
</svg>
