<svg width="173" height="172" fill="none" xmlns="http://www.w3.org/2000/svg"><circle r="85.5" transform="matrix(-1 0 0 1 86.057 86)" stroke="url(#paint0_linear)"/><circle r="70.615" transform="matrix(-1 0 0 1 86.057 86)" stroke="url(#paint1_linear)"/><circle r="25" transform="matrix(-1 0 0 1 85.5 86.5)" stroke="url(#paint2_linear)"/><circle r="54.077" transform="matrix(-1 0 0 1 86.057 86)" stroke="url(#paint3_linear)"/><circle r="24.838" transform="matrix(-1 0 0 1 86.057 86)" stroke="url(#paint4_linear)"/><path stroke="url(#paint5_linear)" d="M0 87.461h172"/><path stroke="url(#paint6_linear)" d="M86.5 0l.114 161.889"/><g clip-path="url(#clip0)" filter="url(#filter0_d)"><path d="M85.5 73.104c-7.938 0-14.396 6.458-14.396 14.396 0 2.795.802 5.406 2.185 7.616.043.082.093.16.15.235 2.572 3.937 7.018 6.545 12.061 6.545 7.938 0 14.396-6.458 14.396-14.396 0-7.938-6.458-14.396-14.396-14.396zM75.104 91.746a11.166 11.166 0 01-.836-4.246c0-6.193 5.039-11.232 11.232-11.232 3.79 0 7.144 1.889 9.18 4.772l-8.69 8.689-3.315-3.316a1.582 1.582 0 00-2.237 0l-5.334 5.333zM85.5 98.732c-3.522 0-6.67-1.631-8.73-4.176l4.786-4.787 3.316 3.316c.618.618 1.62.617 2.238 0l9.067-9.067a11.18 11.18 0 01.555 3.482c0 6.193-5.039 11.232-11.232 11.232z" fill="#ECBF4C"/><path d="M85.5 73.104c-7.938 0-14.396 6.458-14.396 14.396 0 2.795.802 5.406 2.185 7.616.043.082.093.16.15.235 2.572 3.937 7.018 6.545 12.061 6.545 7.938 0 14.396-6.458 14.396-14.396 0-7.938-6.458-14.396-14.396-14.396zM75.104 91.746a11.166 11.166 0 01-.836-4.246c0-6.193 5.039-11.232 11.232-11.232 3.79 0 7.144 1.889 9.18 4.772l-8.69 8.689-3.315-3.316a1.582 1.582 0 00-2.237 0l-5.334 5.333zM85.5 98.732c-3.522 0-6.67-1.631-8.73-4.176l4.786-4.787 3.316 3.316c.618.618 1.62.617 2.238 0l9.067-9.067a11.18 11.18 0 01.555 3.482c0 6.193-5.039 11.232-11.232 11.232z" fill="url(#paint7_linear)"/><path d="M109.839 86.409a46.992 46.992 0 00-6.295-22.017A46.98 46.98 0 0086.287 47.21a1.582 1.582 0 00-1.574 0 46.98 46.98 0 00-17.257 17.182 46.984 46.984 0 00-6.295 22.016 15.202 15.202 0 00-9.2 13.962v11.177c0 .874.708 1.582 1.582 1.582H76.79a19.878 19.878 0 005.834 12.677l1.766 1.739a1.578 1.578 0 002.22 0l1.766-1.739a19.878 19.878 0 005.834-12.677h4.896v8.165a1.582 1.582 0 103.164 0v-8.165h15.187c.874 0 1.582-.708 1.582-1.582V100.37a15.201 15.201 0 00-9.2-13.962zM85.5 50.417A43.665 43.665 0 0198.089 61.87H72.91A43.665 43.665 0 0185.5 50.417zm-30.375 59.548v-9.595c0-4.35 2.343-8.297 6.012-10.417v18.43c0 .554.096 1.087.272 1.582h-6.284zm31.03 13.587l-.655.645-.655-.645a16.692 16.692 0 01-4.882-10.423h11.074a16.694 16.694 0 01-4.882 10.423zm20.544-15.169c0 .872-.709 1.582-1.582 1.582H65.883c-.873 0-1.582-.71-1.582-1.582V87.909a43.63 43.63 0 013.232-16.467h7.163a1.582 1.582 0 000-3.164H68.97a43.997 43.997 0 011.806-3.243h29.448a43.763 43.763 0 016.475 22.874v20.474zm9.176 1.582h-6.284a4.715 4.715 0 00.272-1.582v-18.43a12.038 12.038 0 016.012 10.417v9.595z" fill="#ECBF4C"/><path d="M109.839 86.409a46.992 46.992 0 00-6.295-22.017A46.98 46.98 0 0086.287 47.21a1.582 1.582 0 00-1.574 0 46.98 46.98 0 00-17.257 17.182 46.984 46.984 0 00-6.295 22.016 15.202 15.202 0 00-9.2 13.962v11.177c0 .874.708 1.582 1.582 1.582H76.79a19.878 19.878 0 005.834 12.677l1.766 1.739a1.578 1.578 0 002.22 0l1.766-1.739a19.878 19.878 0 005.834-12.677h4.896v8.165a1.582 1.582 0 103.164 0v-8.165h15.187c.874 0 1.582-.708 1.582-1.582V100.37a15.201 15.201 0 00-9.2-13.962zM85.5 50.417A43.665 43.665 0 0198.089 61.87H72.91A43.665 43.665 0 0185.5 50.417zm-30.375 59.548v-9.595c0-4.35 2.343-8.297 6.012-10.417v18.43c0 .554.096 1.087.272 1.582h-6.284zm31.03 13.587l-.655.645-.655-.645a16.692 16.692 0 01-4.882-10.423h11.074a16.694 16.694 0 01-4.882 10.423zm20.544-15.169c0 .872-.709 1.582-1.582 1.582H65.883c-.873 0-1.582-.71-1.582-1.582V87.909a43.63 43.63 0 013.232-16.467h7.163a1.582 1.582 0 000-3.164H68.97a43.997 43.997 0 011.806-3.243h29.448a43.763 43.763 0 016.475 22.874v20.474zm9.176 1.582h-6.284a4.715 4.715 0 00.272-1.582v-18.43a12.038 12.038 0 016.012 10.417v9.595z" fill="url(#paint8_linear)"/><path d="M81.556 68.742a1.593 1.593 0 00-1.118-.464c-.417 0-.825.17-1.119.464a1.594 1.594 0 00-.463 1.118c0 .416.169.825.463 1.119.294.294.702.463 1.118.463.417 0 .825-.169 1.119-.463.294-.294.463-.703.463-1.119 0-.416-.169-.824-.463-1.118z" fill="#ECBF4C"/><path d="M81.556 68.742a1.593 1.593 0 00-1.118-.464c-.417 0-.825.17-1.119.464a1.594 1.594 0 00-.463 1.118c0 .416.169.825.463 1.119.294.294.702.463 1.118.463.417 0 .825-.169 1.119-.463.294-.294.463-.703.463-1.119 0-.416-.169-.824-.463-1.118z" fill="url(#paint9_linear)"/><path d="M70.313 117.361c-.874 0-1.582.708-1.582 1.582v4.874a1.583 1.583 0 003.163 0v-4.874c0-.874-.708-1.582-1.582-1.582z" fill="#ECBF4C"/><path d="M70.313 117.361c-.874 0-1.582.708-1.582 1.582v4.874a1.583 1.583 0 003.163 0v-4.874c0-.874-.708-1.582-1.582-1.582z" fill="url(#paint10_linear)"/><path d="M101.806 125.299a1.593 1.593 0 00-1.118-.463c-.417 0-.825.169-1.119.463a1.596 1.596 0 00-.463 1.119c0 .416.169.824.463 1.118a1.59 1.59 0 001.119.464 1.59 1.59 0 001.118-.464c.294-.294.464-.702.464-1.118 0-.416-.17-.824-.464-1.119z" fill="#ECBF4C"/><path d="M101.806 125.299a1.593 1.593 0 00-1.118-.463c-.417 0-.825.169-1.119.463a1.596 1.596 0 00-.463 1.119c0 .416.169.824.463 1.118a1.59 1.59 0 001.119.464 1.59 1.59 0 001.118-.464c.294-.294.464-.702.464-1.118 0-.416-.17-.824-.464-1.119z" fill="url(#paint11_linear)"/></g><defs><linearGradient id="paint0_linear" x1="86" y1="0" x2="86" y2="172" gradientUnits="userSpaceOnUse"><stop stop-color="#D14F42"/><stop offset="1" stop-color="#fff" stop-opacity="0"/></linearGradient><linearGradient id="paint1_linear" x1="71.115" y1="0" x2="71.115" y2="142.231" gradientUnits="userSpaceOnUse"><stop stop-color="#D14F42"/><stop offset="1" stop-color="#fff" stop-opacity="0"/></linearGradient><linearGradient id="paint2_linear" x1="25.5" y1="0" x2="25.5" y2="51" gradientUnits="userSpaceOnUse"><stop stop-color="#D14F42"/><stop offset="1" stop-color="#fff" stop-opacity="0"/></linearGradient><linearGradient id="paint3_linear" x1="54.577" y1="0" x2="54.577" y2="109.154" gradientUnits="userSpaceOnUse"><stop stop-color="#D14F42"/><stop offset="1" stop-color="#fff" stop-opacity="0"/></linearGradient><linearGradient id="paint4_linear" x1="25.338" y1="0" x2="25.338" y2="50.676" gradientUnits="userSpaceOnUse"><stop stop-color="#D14F42"/><stop offset="1" stop-color="#fff" stop-opacity="0"/></linearGradient><linearGradient id="paint5_linear" x1="0" y1="87.961" x2="173.344" y2="87.961" gradientUnits="userSpaceOnUse"><stop stop-color="#D14F42"/><stop offset="1" stop-color="#fff" stop-opacity="0"/></linearGradient><linearGradient id="paint6_linear" x1="86" y1="0" x2="86.115" y2="163.154" gradientUnits="userSpaceOnUse"><stop stop-color="#D14F42"/><stop offset="1" stop-color="#fff" stop-opacity="0"/></linearGradient><linearGradient id="paint7_linear" x1="85.5" y1="73.104" x2="85.5" y2="101.896" gradientUnits="userSpaceOnUse"><stop stop-color="#D14F42"/><stop offset="1" stop-color="#E58F31"/></linearGradient><linearGradient id="paint8_linear" x1="85.5" y1="47" x2="85.5" y2="128" gradientUnits="userSpaceOnUse"><stop stop-color="#D14F42"/><stop offset="1" stop-color="#E58F31"/></linearGradient><linearGradient id="paint9_linear" x1="80.438" y1="68.278" x2="80.438" y2="71.442" gradientUnits="userSpaceOnUse"><stop stop-color="#D14F42"/><stop offset="1" stop-color="#E58F31"/></linearGradient><linearGradient id="paint10_linear" x1="70.313" y1="117.361" x2="70.313" y2="125.399" gradientUnits="userSpaceOnUse"><stop stop-color="#D14F42"/><stop offset="1" stop-color="#E58F31"/></linearGradient><linearGradient id="paint11_linear" x1="100.688" y1="124.836" x2="100.688" y2="128" gradientUnits="userSpaceOnUse"><stop stop-color="#D14F42"/><stop offset="1" stop-color="#E58F31"/></linearGradient><clipPath id="clip0"><path fill="#fff" transform="translate(45 47)" d="M0 0h81v81H0z"/></clipPath><filter id="filter0_d" x="41" y="47" width="89" height="89" filterUnits="userSpaceOnUse" color-interpolation-filters="sRGB"><feFlood flood-opacity="0" result="BackgroundImageFix"/><feColorMatrix in="SourceAlpha" values="0 0 0 0 0 0 0 0 0 0 0 0 0 0 0 0 0 0 127 0"/><feOffset dy="4"/><feGaussianBlur stdDeviation="2"/><feColorMatrix values="0 0 0 0 0 0 0 0 0 0 0 0 0 0 0 0 0 0 0.18 0"/><feBlend in2="BackgroundImageFix" result="effect1_dropShadow"/><feBlend in="SourceGraphic" in2="effect1_dropShadow" result="shape"/></filter></defs></svg>