<svg width="173" height="172" fill="none" xmlns="http://www.w3.org/2000/svg"><circle r="85.5" transform="matrix(-1 0 0 1 86.057 86)" stroke="url(#paint0_linear)"/><circle r="70.615" transform="matrix(-1 0 0 1 86.057 86)" stroke="url(#paint1_linear)"/><circle r="54.077" transform="matrix(-1 0 0 1 86.057 86)" stroke="url(#paint2_linear)"/><circle r="24.838" transform="matrix(-1 0 0 1 86.057 86)" stroke="url(#paint3_linear)"/><path stroke="url(#paint4_linear)" d="M0 87.461h172"/><path stroke="url(#paint5_linear)" d="M86.5 0l.114 161.889"/><g filter="url(#filter0_d)"><path d="M117.711 53H54.289A1.29 1.29 0 0053 54.29v56.46a1.29 1.29 0 001.29 1.289h26.747a1.29 1.29 0 100-2.578H55.578V64.853c.043.004.086.006.13.006h60.714v44.602h-2.51a1.29 1.29 0 000 2.578h3.799c.712 0 1.289-.577 1.289-1.289V54.29a1.29 1.29 0 00-1.289-1.29zm-1.289 9.281H55.708c-.044 0-.087.003-.13.007v-6.71h60.844v6.703z" fill="#fff"/><path d="M117.711 53H54.289A1.29 1.29 0 0053 54.29v56.46a1.29 1.29 0 001.29 1.289h26.747a1.29 1.29 0 100-2.578H55.578V64.853c.043.004.086.006.13.006h60.714v44.602h-2.51a1.29 1.29 0 000 2.578h3.799c.712 0 1.289-.577 1.289-1.289V54.29a1.29 1.29 0 00-1.289-1.29zm-1.289 9.281H55.708c-.044 0-.087.003-.13.007v-6.71h60.844v6.703z" fill="url(#paint6_linear)"/><path d="M87.427 109.839a1.298 1.298 0 00-.911-.378c-.34 0-.672.138-.912.378s-.377.572-.377.911c0 .339.137.672.377.911.24.24.573.378.912.378a1.294 1.294 0 001.289-1.289c0-.339-.138-.672-.378-.911z" fill="#fff"/><path d="M87.427 109.839a1.298 1.298 0 00-.911-.378c-.34 0-.672.138-.912.378s-.377.572-.377.911c0 .339.137.672.377.911.24.24.573.378.912.378a1.294 1.294 0 001.289-1.289c0-.339-.138-.672-.378-.911z" fill="url(#paint7_linear)"/><path d="M110.75 57.64H81.626a1.29 1.29 0 000 2.579h29.124a1.289 1.289 0 000-2.578z" fill="#fff"/><path d="M110.75 57.64H81.626a1.29 1.29 0 000 2.579h29.124a1.289 1.289 0 000-2.578z" fill="url(#paint8_linear)"/><path d="M67.317 58.018a1.299 1.299 0 00-.91-.377c-.34 0-.672.138-.912.377a1.3 1.3 0 00-.378.912c0 .339.138.671.378.911s.572.378.911.378a1.294 1.294 0 001.289-1.289c0-.34-.138-.672-.377-.912z" fill="#fff"/><path d="M67.317 58.018a1.299 1.299 0 00-.91-.377c-.34 0-.672.138-.912.377a1.3 1.3 0 00-.378.912c0 .339.138.671.378.911s.572.378.911.378a1.294 1.294 0 001.289-1.289c0-.34-.138-.672-.377-.912z" fill="url(#paint9_linear)"/><path d="M62.161 58.018a1.298 1.298 0 00-.911-.377 1.3 1.3 0 00-.911.377 1.3 1.3 0 00-.378.912c0 .339.138.671.378.911s.572.378.911.378c.339 0 .672-.138.911-.378.24-.24.378-.572.378-.911 0-.34-.138-.672-.378-.912z" fill="#fff"/><path d="M62.161 58.018a1.298 1.298 0 00-.911-.377 1.3 1.3 0 00-.911.377 1.3 1.3 0 00-.378.912c0 .339.138.671.378.911s.572.378.911.378c.339 0 .672-.138.911-.378.24-.24.378-.572.378-.911 0-.34-.138-.672-.378-.912z" fill="url(#paint10_linear)"/><path d="M72.474 58.018a1.298 1.298 0 00-.912-.377 1.3 1.3 0 00-.91.377 1.3 1.3 0 00-.379.912c0 .339.138.671.378.911s.573.378.912.378a1.295 1.295 0 001.289-1.289c0-.34-.138-.672-.378-.912z" fill="#fff"/><path d="M72.474 58.018a1.298 1.298 0 00-.912-.377 1.3 1.3 0 00-.91.377 1.3 1.3 0 00-.379.912c0 .339.138.671.378.911s.573.378.912.378a1.295 1.295 0 001.289-1.289c0-.34-.138-.672-.378-.912z" fill="url(#paint11_linear)"/><path d="M93.422 92.722a1.537 1.537 0 00-1.249-1.053l-3.307-.48-1.48-2.996a1.537 1.537 0 00-1.387-.862c-.594 0-1.125.33-1.387.862l-1.479 2.998-3.308.481a1.537 1.537 0 00-1.248 1.054 1.537 1.537 0 00.392 1.585l2.394 2.332-.564 3.295c-.1.585.136 1.164.616 1.512a1.541 1.541 0 001.629.118l2.958-1.556 2.959 1.554a1.536 1.536 0 001.628-.118c.48-.348.716-.928.616-1.513l-.566-3.294 2.392-2.333a1.537 1.537 0 00.391-1.586zm-4.971 2.452a1.545 1.545 0 00-.445 1.37l.304 1.768-1.59-.835a1.546 1.546 0 00-1.439.001l-1.588.836.303-1.77a1.547 1.547 0 00-.445-1.369l-1.286-1.252 1.776-.259c.504-.073.94-.39 1.165-.846l.793-1.61.795 1.609c.225.457.66.773 1.165.846l1.776.258-1.284 1.253z" fill="#fff"/><path d="M93.422 92.722a1.537 1.537 0 00-1.249-1.053l-3.307-.48-1.48-2.996a1.537 1.537 0 00-1.387-.862c-.594 0-1.125.33-1.387.862l-1.479 2.998-3.308.481a1.537 1.537 0 00-1.248 1.054 1.537 1.537 0 00.392 1.585l2.394 2.332-.564 3.295c-.1.585.136 1.164.616 1.512a1.541 1.541 0 001.629.118l2.958-1.556 2.959 1.554a1.536 1.536 0 001.628-.118c.48-.348.716-.928.616-1.513l-.566-3.294 2.392-2.333a1.537 1.537 0 00.391-1.586zm-4.971 2.452a1.545 1.545 0 00-.445 1.37l.304 1.768-1.59-.835a1.546 1.546 0 00-1.439.001l-1.588.836.303-1.77a1.547 1.547 0 00-.445-1.369l-1.286-1.252 1.776-.259c.504-.073.94-.39 1.165-.846l.793-1.61.795 1.609c.225.457.66.773 1.165.846l1.776.258-1.284 1.253z" fill="url(#paint12_linear)"/><path d="M75.178 92.722a1.537 1.537 0 00-1.25-1.053l-3.307-.48-1.48-2.996a1.537 1.537 0 00-1.387-.862c-.593 0-1.125.33-1.387.862l-1.478 2.998-3.308.481a1.538 1.538 0 00-1.248 1.054 1.538 1.538 0 00.392 1.585l2.393 2.332-.564 3.295c-.1.585.136 1.164.616 1.512a1.54 1.54 0 001.63.118l2.957-1.556 2.959 1.554c.525.276 1.15.231 1.629-.118.48-.348.715-.928.615-1.513l-.566-3.294 2.393-2.334a1.537 1.537 0 00.39-1.585zm-4.972 2.452c-.365.355-.53.867-.445 1.37l.304 1.768-1.59-.835a1.546 1.546 0 00-1.438.001l-1.589.836.303-1.77a1.547 1.547 0 00-.445-1.369l-1.285-1.252 1.775-.259c.505-.073.94-.39 1.165-.846l.794-1.61.794 1.609c.226.457.661.773 1.165.846l1.777.258-1.285 1.253z" fill="#fff"/><path d="M75.178 92.722a1.537 1.537 0 00-1.25-1.053l-3.307-.48-1.48-2.996a1.537 1.537 0 00-1.387-.862c-.593 0-1.125.33-1.387.862l-1.478 2.998-3.308.481a1.538 1.538 0 00-1.248 1.054 1.538 1.538 0 00.392 1.585l2.393 2.332-.564 3.295c-.1.585.136 1.164.616 1.512a1.54 1.54 0 001.63.118l2.957-1.556 2.959 1.554c.525.276 1.15.231 1.629-.118.48-.348.715-.928.615-1.513l-.566-3.294 2.393-2.334a1.537 1.537 0 00.39-1.585zm-4.972 2.452c-.365.355-.53.867-.445 1.37l.304 1.768-1.59-.835a1.546 1.546 0 00-1.438.001l-1.589.836.303-1.77a1.547 1.547 0 00-.445-1.369l-1.285-1.252 1.775-.259c.505-.073.94-.39 1.165-.846l.794-1.61.794 1.609c.226.457.661.773 1.165.846l1.777.258-1.285 1.253z" fill="url(#paint13_linear)"/><path d="M111.667 92.726a1.537 1.537 0 00-1.248-1.053l-3.308-.482-1.478-2.998a1.537 1.537 0 00-1.387-.862c-.593 0-1.125.33-1.387.861v.001l-1.48 2.997-3.308.48a1.537 1.537 0 00-1.249 1.052 1.537 1.537 0 00.391 1.586l2.393 2.333-.566 3.295c-.1.584.135 1.164.615 1.512.48.349 1.104.394 1.629.119l2.959-1.555 2.958 1.556a1.534 1.534 0 001.629-.117c.48-.349.715-.928.615-1.513l-.564-3.294 2.394-2.333a1.537 1.537 0 00.392-1.585zm-4.973 2.45a1.545 1.545 0 00-.445 1.368l.303 1.77-1.588-.836a1.545 1.545 0 00-1.44 0l-1.589.834.304-1.769a1.546 1.546 0 00-.445-1.369l-1.285-1.253 1.777-.258c.504-.073.939-.39 1.164-.846l.795-1.609.794 1.61c.225.456.66.773 1.165.846l1.776.259-1.286 1.253z" fill="#fff"/><path d="M111.667 92.726a1.537 1.537 0 00-1.248-1.053l-3.308-.482-1.478-2.998a1.537 1.537 0 00-1.387-.862c-.593 0-1.125.33-1.387.861v.001l-1.48 2.997-3.308.48a1.537 1.537 0 00-1.249 1.052 1.537 1.537 0 00.391 1.586l2.393 2.333-.566 3.295c-.1.584.135 1.164.615 1.512.48.349 1.104.394 1.629.119l2.959-1.555 2.958 1.556a1.534 1.534 0 001.629-.117c.48-.349.715-.928.615-1.513l-.564-3.294 2.394-2.333a1.537 1.537 0 00.392-1.585zm-4.973 2.45a1.545 1.545 0 00-.445 1.368l.303 1.77-1.588-.836a1.545 1.545 0 00-1.44 0l-1.589.834.304-1.769a1.546 1.546 0 00-.445-1.369l-1.285-1.253 1.777-.258c.504-.073.939-.39 1.164-.846l.795-1.609.794 1.61c.225.456.66.773 1.165.846l1.776.259-1.286 1.253z" fill="url(#paint14_linear)"/><path d="M110.75 68.21h-49.5a1.29 1.29 0 00-1.29 1.29v13.918c0 .712.578 1.29 1.29 1.29h49.5a1.29 1.29 0 001.289-1.29V69.5a1.29 1.29 0 00-1.289-1.29zm-1.289 13.92H62.539v-5.67h19.087a1.29 1.29 0 000-2.577H62.539v-3.094h46.922v11.34z" fill="#fff"/><path d="M110.75 68.21h-49.5a1.29 1.29 0 00-1.29 1.29v13.918c0 .712.578 1.29 1.29 1.29h49.5a1.29 1.29 0 001.289-1.29V69.5a1.29 1.29 0 00-1.289-1.29zm-1.289 13.92H62.539v-5.67h19.087a1.29 1.29 0 000-2.577H62.539v-3.094h46.922v11.34z" fill="url(#paint15_linear)"/><path d="M113.912 113.053c-.76 0-1.476.195-2.101.537a4.395 4.395 0 00-4.098-2.821 4.374 4.374 0 00-3.099 1.285 4.378 4.378 0 00-4.91-.892v-7.605a4.394 4.394 0 00-4.39-4.389 4.394 4.394 0 00-4.388 4.389v14.154a1.289 1.289 0 102.578 0v-14.154c0-.998.813-1.811 1.81-1.811 1 0 1.812.813 1.812 1.811v14.154a1.289 1.289 0 002.578 0v-2.553c0-.998.812-1.81 1.81-1.81s1.811.812 1.811 1.81v2.553a1.289 1.289 0 102.578 0v-2.553c0-.998.812-1.81 1.81-1.81s1.811.812 1.811 1.81v2.553a1.289 1.289 0 102.578 0v-.269c0-.998.812-1.81 1.81-1.81.999 0 1.811.812 1.811 1.81a1.289 1.289 0 102.578 0 4.394 4.394 0 00-4.389-4.389z" fill="#fff"/><path d="M113.912 113.053c-.76 0-1.476.195-2.101.537a4.395 4.395 0 00-4.098-2.821 4.374 4.374 0 00-3.099 1.285 4.378 4.378 0 00-4.91-.892v-7.605a4.394 4.394 0 00-4.39-4.389 4.394 4.394 0 00-4.388 4.389v14.154a1.289 1.289 0 102.578 0v-14.154c0-.998.813-1.811 1.81-1.811 1 0 1.812.813 1.812 1.811v14.154a1.289 1.289 0 002.578 0v-2.553c0-.998.812-1.81 1.81-1.81s1.811.812 1.811 1.81v2.553a1.289 1.289 0 102.578 0v-2.553c0-.998.812-1.81 1.81-1.81s1.811.812 1.811 1.81v2.553a1.289 1.289 0 102.578 0v-.269c0-.998.812-1.81 1.81-1.81.999 0 1.811.812 1.811 1.81a1.289 1.289 0 102.578 0 4.394 4.394 0 00-4.389-4.389z" fill="url(#paint16_linear)"/><path d="M88.33 74.26a1.298 1.298 0 00-.912-.377c-.34 0-.672.138-.911.377a1.3 1.3 0 00-.378.912c0 .339.138.672.378.911.24.24.572.378.911.378.339 0 .672-.138.911-.378.24-.24.378-.572.378-.911 0-.34-.138-.672-.378-.912z" fill="#fff"/><path d="M88.33 74.26a1.298 1.298 0 00-.912-.377c-.34 0-.672.138-.911.377a1.3 1.3 0 00-.378.912c0 .339.138.672.378.911.24.24.572.378.911.378.339 0 .672-.138.911-.378.24-.24.378-.572.378-.911 0-.34-.138-.672-.378-.912z" fill="url(#paint17_linear)"/></g><defs><linearGradient id="paint0_linear" x1="86" y1="0" x2="86" y2="172" gradientUnits="userSpaceOnUse"><stop stop-color="#D14F42"/><stop offset="1" stop-color="#fff" stop-opacity="0"/></linearGradient><linearGradient id="paint1_linear" x1="71.115" y1="0" x2="71.115" y2="142.231" gradientUnits="userSpaceOnUse"><stop stop-color="#D14F42"/><stop offset="1" stop-color="#fff" stop-opacity="0"/></linearGradient><linearGradient id="paint2_linear" x1="54.577" y1="0" x2="54.577" y2="109.154" gradientUnits="userSpaceOnUse"><stop stop-color="#D14F42"/><stop offset="1" stop-color="#fff" stop-opacity="0"/></linearGradient><linearGradient id="paint3_linear" x1="25.338" y1="0" x2="25.338" y2="50.676" gradientUnits="userSpaceOnUse"><stop stop-color="#D14F42"/><stop offset="1" stop-color="#fff" stop-opacity="0"/></linearGradient><linearGradient id="paint4_linear" x1="0" y1="87.961" x2="173.344" y2="87.961" gradientUnits="userSpaceOnUse"><stop stop-color="#D14F42"/><stop offset="1" stop-color="#fff" stop-opacity="0"/></linearGradient><linearGradient id="paint5_linear" x1="86" y1="0" x2="86.115" y2="163.154" gradientUnits="userSpaceOnUse"><stop stop-color="#D14F42"/><stop offset="1" stop-color="#fff" stop-opacity="0"/></linearGradient><linearGradient id="paint6_linear" x1="86" y1="53" x2="86" y2="112.039" gradientUnits="userSpaceOnUse"><stop stop-color="#D14F42"/><stop offset="1" stop-color="#ECBF4C"/></linearGradient><linearGradient id="paint7_linear" x1="86.516" y1="109.461" x2="86.516" y2="112.039" gradientUnits="userSpaceOnUse"><stop stop-color="#D14F42"/><stop offset="1" stop-color="#ECBF4C"/></linearGradient><linearGradient id="paint8_linear" x1="96.188" y1="57.641" x2="96.188" y2="60.219" gradientUnits="userSpaceOnUse"><stop stop-color="#D14F42"/><stop offset="1" stop-color="#ECBF4C"/></linearGradient><linearGradient id="paint9_linear" x1="66.406" y1="57.641" x2="66.406" y2="60.219" gradientUnits="userSpaceOnUse"><stop stop-color="#D14F42"/><stop offset="1" stop-color="#ECBF4C"/></linearGradient><linearGradient id="paint10_linear" x1="61.25" y1="57.641" x2="61.25" y2="60.219" gradientUnits="userSpaceOnUse"><stop stop-color="#D14F42"/><stop offset="1" stop-color="#ECBF4C"/></linearGradient><linearGradient id="paint11_linear" x1="71.563" y1="57.641" x2="71.563" y2="60.219" gradientUnits="userSpaceOnUse"><stop stop-color="#D14F42"/><stop offset="1" stop-color="#ECBF4C"/></linearGradient><linearGradient id="paint12_linear" x1="86" y1="87.331" x2="86" y2="101.747" gradientUnits="userSpaceOnUse"><stop stop-color="#D14F42"/><stop offset="1" stop-color="#ECBF4C"/></linearGradient><linearGradient id="paint13_linear" x1="67.755" y1="87.331" x2="67.755" y2="101.747" gradientUnits="userSpaceOnUse"><stop stop-color="#D14F42"/><stop offset="1" stop-color="#ECBF4C"/></linearGradient><linearGradient id="paint14_linear" x1="104.245" y1="87.331" x2="104.245" y2="101.748" gradientUnits="userSpaceOnUse"><stop stop-color="#D14F42"/><stop offset="1" stop-color="#ECBF4C"/></linearGradient><linearGradient id="paint15_linear" x1="86" y1="68.211" x2="86" y2="84.708" gradientUnits="userSpaceOnUse"><stop stop-color="#D14F42"/><stop offset="1" stop-color="#ECBF4C"/></linearGradient><linearGradient id="paint16_linear" x1="104.614" y1="99.168" x2="104.614" y2="119" gradientUnits="userSpaceOnUse"><stop stop-color="#D14F42"/><stop offset="1" stop-color="#ECBF4C"/></linearGradient><linearGradient id="paint17_linear" x1="87.418" y1="73.883" x2="87.418" y2="76.461" gradientUnits="userSpaceOnUse"><stop stop-color="#D14F42"/><stop offset="1" stop-color="#ECBF4C"/></linearGradient><filter id="filter0_d" x="49" y="53" width="74" height="74" filterUnits="userSpaceOnUse" color-interpolation-filters="sRGB"><feFlood flood-opacity="0" result="BackgroundImageFix"/><feColorMatrix in="SourceAlpha" values="0 0 0 0 0 0 0 0 0 0 0 0 0 0 0 0 0 0 127 0"/><feOffset dy="4"/><feGaussianBlur stdDeviation="2"/><feColorMatrix values="0 0 0 0 0 0 0 0 0 0 0 0 0 0 0 0 0 0 0.18 0"/><feBlend in2="BackgroundImageFix" result="effect1_dropShadow"/><feBlend in="SourceGraphic" in2="effect1_dropShadow" result="shape"/></filter></defs></svg>