<svg width="173" height="172" fill="none" xmlns="http://www.w3.org/2000/svg"><circle r="85.5" transform="matrix(-1 0 0 1 86.057 86)" stroke="url(#paint0_linear)"/><circle r="70.615" transform="matrix(-1 0 0 1 86.057 86)" stroke="url(#paint1_linear)"/><circle r="54.077" transform="matrix(-1 0 0 1 86.057 86)" stroke="url(#paint2_linear)"/><circle r="24.838" transform="matrix(-1 0 0 1 86.057 86)" stroke="url(#paint3_linear)"/><path stroke="url(#paint4_linear)" d="M0 87.461h172"/><path stroke="url(#paint5_linear)" d="M86.5 0l.114 161.889"/><g filter="url(#filter0_d)"><path d="M124.969 86.968c-.717-15.554-13.908-27.58-29.462-26.863-14.548.672-26.19 12.314-26.862 26.863h-3.993l-3.77-6.08a1.3 1.3 0 00-1.104-.615h-11.47a1.3 1.3 0 00-1.105 1.985l3.753 6.05-3.753 6.051a1.3 1.3 0 001.105 1.985h11.47a1.3 1.3 0 001.104-.614l3.821-6.162h3.941c.718 15.553 13.91 27.58 29.463 26.862s27.58-13.908 26.862-29.462zm-65.916 6.776H50.64l2.54-4.094h8.41l-2.537 4.094zm-5.87-6.776l-2.543-4.095h8.413l2.54 4.095h-8.41zm43.69 26.895c-13.644.018-24.903-10.67-25.595-24.295h5.31c.719 11.177 10.361 19.656 21.538 18.937 11.177-.718 19.656-10.36 18.938-21.537S106.703 67.312 95.526 68.03c-10.176.654-18.284 8.762-18.937 18.938h-5.31c.695-13.597 11.912-24.271 25.527-24.293 14.135-.018 25.608 11.426 25.627 25.56.018 14.136-11.426 25.609-25.56 25.628zm-.069-26.895h-1.33a1.866 1.866 0 110 2.6h1.33a1.3 1.3 0 000-2.6zm1.328 5.57a4.463 4.463 0 002.97-5.57 4.463 4.463 0 00-8.54 0h-5.435c.718-5.35 5.637-9.104 10.987-8.386 5.35.717 9.104 5.636 8.386 10.986a9.772 9.772 0 01-10.986 8.386 9.773 9.773 0 01-8.387-8.386h5.434a4.464 4.464 0 005.57 2.97zm-.026 8.034c6.796-.718 11.723-6.809 11.005-13.604-.718-6.796-6.809-11.723-13.605-11.005a12.373 12.373 0 00-11.005 11.005h-5.313c.718-9.738 9.195-17.05 18.932-16.332 9.738.718 17.05 9.194 16.332 18.932-.718 9.737-9.194 17.049-18.932 16.332-8.739-.645-15.687-7.593-16.331-16.332h5.313c.717 6.795 6.808 11.722 13.604 11.004z" fill="url(#paint6_linear)"/><path d="M70.4 49H60v2.6h10.4V49z" fill="url(#paint7_linear)"/><path d="M80.8 58.1H70.4v2.6h10.4v-2.6z" fill="url(#paint8_linear)"/><path d="M57.4 49h-2.6v2.6h2.6V49z" fill="url(#paint9_linear)"/><path d="M62.6 73.7H52.2v2.6h10.4v-2.6z" fill="url(#paint10_linear)"/><path d="M49.6 73.7H47v2.6h2.6v-2.6z" fill="url(#paint11_linear)"/><path d="M65.2 102.3h-7.8v2.6h7.8v-2.6z" fill="url(#paint12_linear)"/><path d="M54.8 102.3h-2.6v2.6h2.6v-2.6z" fill="url(#paint13_linear)"/><path d="M75.6 113.999H73v2.6h2.6v-2.6z" fill="url(#paint14_linear)"/><path d="M62.6 124.399H52.2v2.6h10.4v-2.6z" fill="url(#paint15_linear)"/><path d="M49.6 124.399H47v2.6h2.6v-2.6z" fill="url(#paint16_linear)"/></g><defs><linearGradient id="paint0_linear" x1="86" y1="0" x2="86" y2="172" gradientUnits="userSpaceOnUse"><stop stop-color="#D14F42"/><stop offset="1" stop-color="#fff" stop-opacity="0"/></linearGradient><linearGradient id="paint1_linear" x1="71.115" y1="0" x2="71.115" y2="142.231" gradientUnits="userSpaceOnUse"><stop stop-color="#D14F42"/><stop offset="1" stop-color="#fff" stop-opacity="0"/></linearGradient><linearGradient id="paint2_linear" x1="54.577" y1="0" x2="54.577" y2="109.154" gradientUnits="userSpaceOnUse"><stop stop-color="#D14F42"/><stop offset="1" stop-color="#fff" stop-opacity="0"/></linearGradient><linearGradient id="paint3_linear" x1="25.338" y1="0" x2="25.338" y2="50.676" gradientUnits="userSpaceOnUse"><stop stop-color="#D14F42"/><stop offset="1" stop-color="#fff" stop-opacity="0"/></linearGradient><linearGradient id="paint4_linear" x1="0" y1="87.961" x2="173.344" y2="87.961" gradientUnits="userSpaceOnUse"><stop stop-color="#D14F42"/><stop offset="1" stop-color="#fff" stop-opacity="0"/></linearGradient><linearGradient id="paint5_linear" x1="86" y1="0" x2="86.115" y2="163.154" gradientUnits="userSpaceOnUse"><stop stop-color="#D14F42"/><stop offset="1" stop-color="#fff" stop-opacity="0"/></linearGradient><linearGradient id="paint6_linear" x1="86.004" y1="60.075" x2="86.004" y2="116.461" gradientUnits="userSpaceOnUse"><stop stop-color="#D14F42"/><stop offset="1" stop-color="#E58F31"/></linearGradient><linearGradient id="paint7_linear" x1="65.2" y1="49.001" x2="65.2" y2="51.601" gradientUnits="userSpaceOnUse"><stop stop-color="#D14F42"/><stop offset="1" stop-color="#E58F31"/></linearGradient><linearGradient id="paint8_linear" x1="75.599" y1="58.101" x2="75.599" y2="60.7" gradientUnits="userSpaceOnUse"><stop stop-color="#D14F42"/><stop offset="1" stop-color="#E58F31"/></linearGradient><linearGradient id="paint9_linear" x1="56.1" y1="49.001" x2="56.1" y2="51.601" gradientUnits="userSpaceOnUse"><stop stop-color="#D14F42"/><stop offset="1" stop-color="#E58F31"/></linearGradient><linearGradient id="paint10_linear" x1="57.4" y1="73.7" x2="57.4" y2="76.3" gradientUnits="userSpaceOnUse"><stop stop-color="#D14F42"/><stop offset="1" stop-color="#E58F31"/></linearGradient><linearGradient id="paint11_linear" x1="48.3" y1="73.7" x2="48.3" y2="76.3" gradientUnits="userSpaceOnUse"><stop stop-color="#D14F42"/><stop offset="1" stop-color="#E58F31"/></linearGradient><linearGradient id="paint12_linear" x1="61.3" y1="102.3" x2="61.3" y2="104.9" gradientUnits="userSpaceOnUse"><stop stop-color="#D14F42"/><stop offset="1" stop-color="#E58F31"/></linearGradient><linearGradient id="paint13_linear" x1="53.5" y1="102.3" x2="53.5" y2="104.9" gradientUnits="userSpaceOnUse"><stop stop-color="#D14F42"/><stop offset="1" stop-color="#E58F31"/></linearGradient><linearGradient id="paint14_linear" x1="74.299" y1="113.999" x2="74.299" y2="116.599" gradientUnits="userSpaceOnUse"><stop stop-color="#D14F42"/><stop offset="1" stop-color="#E58F31"/></linearGradient><linearGradient id="paint15_linear" x1="57.4" y1="124.399" x2="57.4" y2="126.999" gradientUnits="userSpaceOnUse"><stop stop-color="#D14F42"/><stop offset="1" stop-color="#E58F31"/></linearGradient><linearGradient id="paint16_linear" x1="48.3" y1="124.399" x2="48.3" y2="126.999" gradientUnits="userSpaceOnUse"><stop stop-color="#D14F42"/><stop offset="1" stop-color="#E58F31"/></linearGradient><filter id="filter0_d" x="43" y="49" width="86" height="86" filterUnits="userSpaceOnUse" color-interpolation-filters="sRGB"><feFlood flood-opacity="0" result="BackgroundImageFix"/><feColorMatrix in="SourceAlpha" values="0 0 0 0 0 0 0 0 0 0 0 0 0 0 0 0 0 0 127 0"/><feOffset dy="4"/><feGaussianBlur stdDeviation="2"/><feColorMatrix values="0 0 0 0 0 0 0 0 0 0 0 0 0 0 0 0 0 0 0.18 0"/><feBlend in2="BackgroundImageFix" result="effect1_dropShadow"/><feBlend in="SourceGraphic" in2="effect1_dropShadow" result="shape"/></filter></defs></svg>