<svg width="520" height="145" fill="none" xmlns="http://www.w3.org/2000/svg"><path d="M39.15 92.269c.583-2.813 4.172-4.462 7.373-4.462 3.007 0 5.335 1.94 5.335 4.947 0 3.395-3.104 7.275-8.051 7.275h-5.044l-3.007 14.162h5.238c5.14 0 7.372 3.104 7.372 6.402 0 4.268-3.88 9.021-10.67 9.021-5.044 0-8.342-3.395-7.178-8.73H15.095c-3.298 15.326 4.559 23.668 19.497 23.668 22.116 0 31.622-11.931 31.622-25.705 0-5.432-2.134-9.894-6.887-12.707 5.529-3.686 9.118-9.894 9.118-15.811 0-8.536-6.014-16.49-18.915-16.49-12.028 0-23.862 5.82-25.996 18.43H39.15zm66.627 2.91c-15.811-.291-28.615 7.663-32.495 23.765-2.813 13.483 1.26 24.541 15.81 24.832 5.53 0 11.641-2.716 15.23-7.857-1.843 9.506 10.67 8.245 16.781 6.984l1.843-8.924c-4.171 0-4.462-2.134-3.686-5.917l6.111-28.615c-5.82-2.619-12.61-4.171-19.594-4.268zm-.679 23.959c-1.552 5.82-4.753 10.088-9.7 10.088-5.432.097-7.275-3.686-5.82-9.894 2.037-6.984 6.499-10.767 12.319-11.058 1.843-.097 3.686.194 5.723.679l-2.522 10.185zm83.589-44.62l-25.511 31.428c-3.88 4.947-8.342 11.931-8.342 19.885 0 12.416 8.924 18.333 21.728 18.333 17.46 0 31.719-9.215 31.719-28.13 0-11.155-6.984-17.266-19.012-17.266-.291 0-.679.194-.97.291l19.691-24.541h-19.303zm-8.924 54.708c-4.947 0-7.178-2.328-7.178-6.305 0-6.208 3.88-10.573 10.767-10.573 4.656 0 6.984 2.134 6.984 6.305 0 6.208-3.686 10.573-10.573 10.573zm96.748-55.387c-13.968 0-27.354 8.633-30.458 23.377-1.649 7.76-3.492 16.102-5.044 23.862-3.104 14.841 6.499 23.377 20.467 23.377s27.257-8.536 30.361-23.377c1.552-7.76 3.395-16.102 5.044-23.862 3.104-14.744-6.402-23.377-20.37-23.377zm-11.737 55.096c-5.141 0-8.342-2.716-7.178-8.148l4.947-23.183c1.164-5.529 5.529-8.342 10.67-8.342 4.947 0 8.245 2.813 7.081 8.342-1.552 7.372-3.298 15.714-4.947 23.183-1.164 5.432-5.626 8.148-10.573 8.148zm74.73-55.096c-13.968 0-27.354 8.633-30.458 23.377-1.649 7.76-3.492 16.102-5.044 23.862-3.104 14.841 6.499 23.377 20.467 23.377s27.257-8.536 30.361-23.377c1.552-7.76 3.395-16.102 5.044-23.862 3.104-14.744-6.402-23.377-20.37-23.377zm-11.737 55.096c-5.141 0-8.342-2.716-7.178-8.148l4.947-23.183c1.164-5.529 5.529-8.342 10.67-8.342 4.947 0 8.245 2.813 7.081 8.342-1.552 7.372-3.298 15.714-4.947 23.183-1.164 5.432-5.626 8.148-10.573 8.148zm74.73-55.096c-13.968 0-27.354 8.633-30.458 23.377-1.649 7.76-3.492 16.102-5.044 23.862-3.104 14.841 6.499 23.377 20.467 23.377s27.257-8.536 30.361-23.377c1.552-7.76 3.395-16.102 5.044-23.862 3.104-14.744-6.402-23.377-20.37-23.377zm-11.737 55.096c-5.141 0-8.342-2.716-7.178-8.148l4.947-23.183c1.164-5.529 5.529-8.342 10.67-8.342 4.947 0 8.245 2.813 7.081 8.342-1.552 7.372-3.298 15.714-4.947 23.183-1.164 5.432-5.626 8.148-10.573 8.148zM452.028 143l1.94-9.118h-6.596l1.94-9.215h6.596l1.552-7.178h-6.693l2.619-12.125h6.693l6.693-31.622h20.273c4.397 0 8.019.808 10.864 2.425 2.845 1.617 4.947 3.75 6.305 6.402 1.358 2.587 2.037 5.432 2.037 8.536 0 2.91-.453 5.917-1.358 9.021-.905 3.039-2.457 5.885-4.656 8.536-2.134 2.587-5.109 4.721-8.924 6.402-3.751 1.617-8.504 2.425-14.259 2.425h-5.529l-1.552 7.178h13.095l-1.94 9.215h-13.095l-1.94 9.118h-14.065zm22.116-37.636h3.88c3.815 0 7.049-1.002 9.7-3.007 2.651-2.005 3.977-5.141 3.977-9.409 0-4.656-2.651-6.984-7.954-6.984h-5.529l-4.074 19.4zM29.435 9.6c3.888.144 2.256 4.128-.816 7.584L13.355 34.128 12.97 36h23.232l1.632-7.776H27.707c8.352-8.88 7.872-9.12 7.968-9.216 7.2-8.112 4.752-17.136-4.32-17.136-6.672 0-11.808 4.08-13.056 10.944h7.248c.432-2.256 2.304-3.264 3.888-3.216zm31.792-7.824c-6.912 0-13.536 4.272-15.072 11.568-.816 3.84-1.728 7.968-2.496 11.808-1.536 7.344 3.216 11.568 10.128 11.568s13.488-4.224 15.024-11.568c.768-3.84 1.68-7.968 2.496-11.808 1.536-7.296-3.168-11.568-10.08-11.568zM55.419 29.04c-2.544 0-4.128-1.344-3.552-4.032l2.448-11.472c.576-2.736 2.736-4.128 5.28-4.128 2.448 0 4.08 1.392 3.504 4.128-.768 3.648-1.632 7.776-2.448 11.472-.576 2.688-2.784 4.032-5.232 4.032zm48.558-27.264c-6.912 0-13.536 4.272-15.072 11.568-.816 3.84-1.728 7.968-2.496 11.808-1.536 7.344 3.216 11.568 10.128 11.568s13.488-4.224 15.024-11.568c.768-3.84 1.68-7.968 2.496-11.808 1.536-7.296-3.168-11.568-10.08-11.568zM98.169 29.04c-2.544 0-4.128-1.344-3.552-4.032l2.448-11.472c.576-2.736 2.736-4.128 5.28-4.128 2.448 0 4.08 1.392 3.504 4.128-.768 3.648-1.632 7.776-2.448 11.472-.576 2.688-2.784 4.032-5.232 4.032zm36.98-27.264c-6.912 0-13.536 4.272-15.072 11.568-.816 3.84-1.728 7.968-2.496 11.808-1.536 7.344 3.216 11.568 10.128 11.568s13.488-4.224 15.024-11.568c.768-3.84 1.68-7.968 2.496-11.808 1.536-7.296-3.168-11.568-10.08-11.568zm-5.808 27.264c-2.544 0-4.128-1.344-3.552-4.032l2.448-11.472c.576-2.736 2.736-4.128 5.28-4.128 2.448 0 4.08 1.392 3.504 4.128-.768 3.648-1.632 7.776-2.448 11.472-.576 2.688-2.784 4.032-5.232 4.032zM166.32 1.776c-6.912 0-13.536 4.272-15.072 11.568-.816 3.84-1.728 7.968-2.496 11.808-1.536 7.344 3.216 11.568 10.128 11.568s13.488-4.224 15.024-11.568c.768-3.84 1.68-7.968 2.496-11.808 1.536-7.296-3.168-11.568-10.08-11.568zm-5.808 27.264c-2.544 0-4.128-1.344-3.552-4.032l2.448-11.472c.576-2.736 2.736-4.128 5.28-4.128 2.448 0 4.08 1.392 3.504 4.128-.768 3.648-1.632 7.776-2.448 11.472-.576 2.688-2.784 4.032-5.232 4.032zM190.83 36l.96-4.512h-3.264l.96-4.56h3.264l.768-3.552h-3.312l1.296-6h3.312l3.312-15.648h10.032c2.176 0 3.968.4 5.376 1.2 1.408.8 2.448 1.856 3.12 3.168.672 1.28 1.008 2.688 1.008 4.224 0 1.44-.224 2.928-.672 4.464-.448 1.504-1.216 2.912-2.304 4.224-1.056 1.28-2.528 2.336-4.416 3.168-1.856.8-4.208 1.2-7.056 1.2h-2.736l-.768 3.552h6.48l-.96 4.56h-6.48L197.79 36h-6.96zm10.944-18.624h1.92c1.888 0 3.488-.496 4.8-1.488 1.312-.992 1.968-2.544 1.968-4.656 0-2.304-1.312-3.456-3.936-3.456h-2.736l-2.016 9.6z" fill="#fff"/><path stroke="#D14F42" stroke-width="2" d="M0 19.5h226.861"/></svg>